<svg id="Layer_1" enable-background="new 0 0 512.001 512.001" height="512" viewBox="0 0 512.001 512.001" width="512" xmlns="http://www.w3.org/2000/svg"><g><g clip-rule="evenodd" fill-rule="evenodd"><path d="m217.45 278.083c11.959-52.976 23.702-104.999-1.566-148.764-5.48-9.535-17.652-12.823-27.187-7.344-9.535 5.48-12.823 17.652-7.344 27.187 17.482 30.28 7.428 74.817-2.809 120.17-10.193 45.157-20.54 91.009-8.276 132.667h42.486c-15.591-34.026-5.361-79.363 4.696-123.916z" fill="#88df8e"/><path d="m299.444 225.717c-20.143 34.889-11.013 75.335-1.715 116.523 4.622 20.475 9.292 41.173 9.518 59.759h40.05c-.268-22.447-5.49-45.594-10.662-68.509-7.564-33.508-14.992-66.413-2.66-87.773 5.523-9.535 2.27-21.743-7.265-27.266-9.536-5.522-21.743-2.269-27.266 7.266z" fill="#88df8e"/><path d="m297.729 342.241c-9.298-41.188-18.428-81.634 1.715-116.523 5.523-9.536 17.73-12.788 27.266-7.266 9.535 5.523 12.788 17.73 7.265 27.266-12.332 21.36-4.904 54.265 2.66 87.773 5.173 22.916 10.395 46.062 10.662 68.509h68.703v-232c0-88-72-160-160-160s-160 72-160 160v232h74.267c-12.264-41.657-1.917-87.51 8.276-132.667 10.238-45.353 20.291-89.89 2.809-120.17-5.48-9.536-2.192-21.708 7.344-27.187 9.536-5.48 21.708-2.192 27.187 7.344 25.268 43.765 13.524 95.788 1.566 148.764-10.057 44.553-20.287 89.89-4.696 123.917h94.494c-.226-18.587-4.896-39.285-9.518-59.76z" fill="#b8ecbb"/><path d="m307.248 402h-94.494-42.486-74.267v50.002h320v-50.002h-68.703z" fill="#a7bdcd"/><path d="m416.001 452.002h-320-20c-11 0-20 9-20 20v30h400v-30c0-11-9-20-20-20z" fill="#6d91ac"/></g><g><path d="m436 442.001h-10v-272.001c0-45.232-17.731-87.874-49.929-120.071-32.196-32.198-74.839-49.929-120.071-49.929s-87.873 17.732-120.07 49.929c-32.198 32.197-49.929 74.839-49.929 120.071v272.001h-10c-16.542 0-30 13.458-30 30v30c0 5.523 4.477 10 10 10h400c5.522 0 10-4.477 10-10v-30c-.001-16.542-13.459-30-30.001-30zm-329.999-272.001c0-82.71 67.29-150 150-150s150 67.29 150 150v222h-49.114c-.931-13.656-3.324-27.397-6.161-40.988 14.732-10.463 28.576-33.043 28.576-62.978 0-5.523-4.478-10-10-10s-10 4.477-10 10c0 19.126-6.813 32.51-13.548 40.438-6.733-29.885-13.18-60.329-3.126-77.742 4.01-6.923 5.084-14.994 3.024-22.725-2.061-7.731-7.008-14.197-13.932-18.206-14.288-8.277-32.652-3.385-40.938 10.918-11.663 20.201-14.435 41.84-13.062 63.948-4.109-4.347-8.15-10.644-10.51-19.454-1.43-5.334-6.909-8.505-12.247-7.071-5.335 1.429-8.501 6.913-7.071 12.247 5.804 21.66 20.201 35.476 33.084 40.505 1.958 11.203 4.486 22.427 6.997 33.552 3.62 16.037 7.335 32.529 8.714 47.557h-77.165c-10.638-30.502-1.339-71.755 7.681-111.715 5.995-26.555 12.088-53.558 13.379-79.787 15.496-9.736 30.698-33.034 30.698-64.402 0-5.523-4.478-10-10-10-5.523 0-10 4.477-10 10 0 16.975-5.368 29.418-11.284 37.547-1.749-17.093-6.405-33.651-15.443-49.306-3.981-6.928-10.422-11.891-18.135-13.974-7.714-2.082-15.777-1.039-22.705 2.943-6.928 3.981-11.89 10.421-13.974 18.135-2.083 7.714-1.039 15.777 2.953 22.722 15.527 26.893 6.089 68.703-3.903 112.968-3.151 13.956-6.332 28.059-8.874 42.169-5.201-13.429-8.047-32.519-1.83-55.721 1.43-5.335-1.736-10.818-7.071-12.248-5.335-1.431-10.819 1.736-12.248 7.071-12.118 45.225 4.286 78.418 16.84 92.094-1.523 17.405-1.287 34.66 1.971 51.504h-51.577v-222.001zm210.767 222c-1.361-16.841-5.378-34.655-9.285-51.961-9.034-40.019-17.567-77.818.613-109.309 2.751-4.75 8.852-6.375 13.601-3.624 2.301 1.332 3.944 3.48 4.629 6.049s.328 5.25-1.012 7.563c-14.287 24.745-6.229 60.444 1.565 94.975 4.216 18.677 8.554 37.906 9.957 56.307zm-138.755 0c-8.449-37.417 1.061-79.603 10.285-120.466 10.399-46.068 21.152-93.705 1.725-127.354-2.724-4.739-1.083-10.811 3.656-13.534 2.296-1.319 4.968-1.665 7.524-.976 2.556.691 4.69 2.335 6.02 4.648 23.313 40.379 12.217 89.528.471 141.562-9.063 40.149-18.386 81.516-9.087 116.119h-20.594zm-72.012 50.001v-30.001h300v30.001zm339.999 50h-380v-20c0-5.514 4.486-10 10-10h360c5.514 0 10 4.486 10 10z"/><path d="m168.113 98.569c2.685 0 5.363-1.075 7.333-3.198 11.143-12.009 25.002-21.546 40.081-27.582 5.127-2.052 7.621-7.873 5.568-13-2.053-5.128-7.874-7.619-13-5.568-17.809 7.128-34.168 18.382-47.311 32.546-3.756 4.049-3.52 10.376.529 14.132 1.926 1.787 4.366 2.67 6.8 2.67z"/><path d="m242.305 338.366c0 5.523 4.481 10 10.004 10 5.522 0 10-4.477 10-10s-4.478-10-10-10h-.007c-5.523 0-9.997 4.477-9.997 10z"/><path d="m144.302 192.366c5.523 0 10-4.477 10-10s-4.477-10-10-10h-.008c-5.523 0-9.996 4.477-9.996 10s4.481 10 10.004 10z"/><path d="m310.302 110.366c5.522 0 10-4.477 10-10s-4.478-10-10-10h-.008c-5.522 0-9.996 4.477-9.996 10s4.482 10 10.004 10z"/><path d="m359.302 174.366c5.522 0 10-4.477 10-10s-4.478-10-10-10h-.008c-5.522 0-9.996 4.477-9.996 10s4.482 10 10.004 10z"/><path d="m256.008 60c5.522 0 10-4.477 10-10s-4.478-10-10-10h-.007c-5.523 0-9.996 4.477-9.996 10s4.48 10 10.003 10z"/></g></g></svg>