<svg id="Layer_1" enable-background="new 0 0 512.005 512.005" height="512" viewBox="0 0 512.005 512.005" width="512" xmlns="http://www.w3.org/2000/svg"><g><g clip-rule="evenodd" fill-rule="evenodd"><path d="m398.141 40.427c0 16.805 13.623 30.427 30.428 30.427 16.804 0 30.427-13.623 30.427-30.427s-13.623-30.427-30.427-30.427c-16.805 0-30.428 13.623-30.428 30.427z" fill="#88df8e"/><path d="m421.395 162.348-114.748-114.747c-20.844 20.844-28.708 51.377-20.679 79.61 10.788 6.105 20.91 14.914 30.906 24.911 9.996 9.996 18.805 20.117 24.909 30.906 28.236 8.028 58.767.166 79.612-20.68z" fill="#a7bdcd"/><path d="m316.874 152.122c-9.996-9.996-20.118-18.806-30.906-24.911-27.683-15.665-59.753-13.521-105.355 32.081-34.61 34.609-69.856 87.092-88.915 133.411-15.84 38.496-20.499 72.734-4.319 88.913 15.424 15.424 47.258 11.91 83.547-2.174 24.596-9.546 51.239-23.948 76.207-40.601 9.539-6.362 18.833-13.052 27.675-19.926 12.787-9.941 24.628-20.265 34.896-30.533 45.603-45.603 47.746-77.673 32.08-105.356-6.105-10.787-14.914-20.908-24.91-30.904zm-93.551 49.003c12.301-12.302 32.246-12.302 44.548 0 12.302 12.301 12.302 32.246 0 44.548-12.301 12.302-32.246 12.302-44.548 0s-12.302-32.246 0-44.548zm-37.164 81.712c8.764 8.764 8.764 22.973 0 31.738-8.764 8.764-22.973 8.764-31.737 0s-8.764-22.973 0-31.738c8.763-8.764 22.972-8.764 31.737 0z" fill="#6d91ac"/><circle cx="245.597" cy="223.399" fill="#88df8e" r="31.5"/><path d="m186.159 314.575c8.764-8.764 8.764-22.973 0-31.738-8.764-8.764-22.973-8.764-31.737 0s-8.764 22.973 0 31.738c8.763 8.764 22.972 8.764 31.737 0z" fill="#88df8e"/><path d="m91.698 292.704c19.059-46.319 54.305-98.802 88.915-133.411-20.722-20.723-68.425 11.575-118.789 64.454-12.512 13.137-11.483 27.6 1.964 41.047s27.91 27.91 27.91 27.91z" fill="#a7bdcd"/><path d="m247.133 338.842c-24.967 16.653-51.611 31.055-76.207 40.601 30.644 47.623 65.379 88.413 114.927 117.019 10.517 6.073 22.638 8.588 31.226 0 13.597-13.596 27.193-27.193 40.789-40.789 8.587-8.588 10.316-24.336-3.105-33.314-36.101-24.148-72.423-52.889-107.63-83.517z" fill="#6d91ac"/><path d="m274.807 318.916c27.516 26.056 56.163 26.59 60.492 13.05 3.138-9.816-16.446-20.539-30.403-38.88-9.096 8.706-19.253 17.406-30.089 25.83z" fill="#a7bdcd"/></g><g><path d="m428.569 80.854c22.291 0 40.427-18.135 40.427-40.427-.001-22.291-18.136-40.427-40.427-40.427s-40.427 18.136-40.427 40.428c0 7.526 2.073 14.574 5.669 20.614l-1.102 1.102-25.202-25.202c-3.906-3.905-10.236-3.905-14.143 0-3.905 3.905-3.905 10.237 0 14.143l25.202 25.202-14.545 14.545-50.302-50.303c-1.876-1.875-4.419-2.929-7.071-2.929s-5.196 1.054-7.071 2.929c-18.772 18.773-28.201 44.594-26.492 70.508-25.609-7.281-55.695-.241-93.465 35.289-31.926-16.299-84.808 28.285-125.036 70.522-16.153 16.96-15.355 37.527 2.133 55.016l23.245 23.245c-13.14 33.979-20.637 72.595.346 93.579 9.43 9.43 22.415 13.107 36.946 13.107 15.615 0 33.012-4.251 49.678-10.178 6.039 9.136 11.929 17.534 17.901 25.51 1.964 2.624 4.97 4.007 8.013 4.007 2.085 0 4.188-.65 5.986-1.996 4.421-3.311 5.321-9.578 2.011-13.999-4.971-6.639-9.892-13.596-14.906-21.065 2.161-.941 4.291-1.895 6.381-2.854 17.825-8.187 36.229-18.429 53.987-29.879 3.83 3.297 7.641 6.545 11.433 9.74l-14.393 14.393c-3.905 3.905-3.905 10.237 0 14.143 1.953 1.953 4.512 2.929 7.071 2.929s5.119-.976 7.071-2.929l15.708-15.708c5.269 4.305 10.498 8.51 15.681 12.603l-14.773 14.772c-3.905 3.905-3.905 10.237 0 14.142 1.953 1.953 4.512 2.929 7.071 2.929s5.118-.977 7.071-2.929l16.562-16.561c5.599 4.259 11.138 8.38 16.619 12.371l-14.708 14.708c-3.905 3.905-3.905 10.237 0 14.142 1.953 1.953 4.512 2.929 7.071 2.929s5.118-.977 7.071-2.929l17.091-17.091c3.782 2.625 7.537 5.191 11.252 7.676 3.219 2.153 5.01 4.862 5.323 8.05.34 3.454-1.09 7.24-3.73 9.88l-40.789 40.79c-4.963 4.962-13.157 1.874-19.155-1.589-10.232-5.908-20.195-12.602-29.611-19.895-4.366-3.382-10.647-2.585-14.03 1.782-3.382 4.366-2.584 10.647 1.782 14.029 10.128 7.845 20.847 15.046 31.859 21.404 7.956 4.593 15.683 6.882 22.75 6.882 7.861 0 14.907-2.831 20.548-8.472l40.789-40.79c6.867-6.868 10.416-16.579 9.492-25.978-.9-9.167-5.911-17.235-14.108-22.719-30.167-20.18-62.704-45.157-96.831-74.311 3.68-2.599 7.313-5.24 10.885-7.916 14.858 12.062 31.28 18.911 45.026 18.911 3.163 0 6.188-.362 9.015-1.106 8.142-2.142 14.121-7.469 16.405-14.614 3.835-11.996-5.818-21.226-16.039-30.998-3.288-3.144-6.864-6.574-10.291-10.302 30.202-30.713 43.92-58.414 41.897-84.624-.351-4.552-1.175-8.936-2.368-13.166 1.972.128 3.944.196 5.912.196 23.869 0 47.212-9.378 64.53-26.696 1.875-1.875 2.929-4.419 2.929-7.071s-1.054-5.196-2.929-7.071l-50.302-50.303 14.545-14.545 25.202 25.201c1.953 1.953 4.512 2.929 7.071 2.929s5.118-.976 7.071-2.929c3.905-3.905 3.905-10.237 0-14.143l-25.202-25.201 1.102-1.102c6.043 3.597 13.092 5.67 20.618 5.67zm-359.503 149.789c44.81-47.048 77.106-66.736 94.112-67.556-28.748 31.467-56.61 73.139-74.753 112.201l-17.566-17.566c-12.523-12.522-7.537-21.05-1.793-27.079zm256.223 98.818c-.439.307-1.134.604-1.959.821-6.751 1.778-19.2-1.21-32.757-11.178 4.644-3.823 9.141-7.687 13.453-11.571 3.726 4.033 7.479 7.626 10.939 10.934 3.776 3.613 8.796 8.412 10.324 10.994zm-22.657-48.149c-31.066 31.067-76.535 62.385-118.662 81.733-43.348 19.909-76.813 24.208-89.521 11.5s-8.408-46.173 11.5-89.521c19.348-42.126 50.666-87.595 81.733-118.662 27.665-27.665 49.138-37.993 67.347-37.993 8.959 0 17.126 2.509 24.851 6.678.739.562 1.55 1.018 2.414 1.357 7.016 4.143 13.688 9.622 20.285 15.785l-35.616 35.616c-6.386-3.85-13.719-5.907-21.368-5.907-11.085 0-21.506 4.317-29.344 12.155-7.839 7.838-12.156 18.26-12.156 29.345 0 7.67 2.069 15.02 5.939 21.419l-24.989 24.988c-4.514-2.311-9.539-3.542-14.757-3.542-8.666 0-16.812 3.375-22.94 9.502-12.649 12.649-12.649 33.231 0 45.88 6.325 6.324 14.632 9.487 22.94 9.487s16.615-3.163 22.94-9.487c10.182-10.182 12.161-25.502 5.951-37.689l24.997-24.997c6.398 3.87 13.749 5.939 21.418 5.939 11.085 0 21.507-4.317 29.345-12.155s12.155-18.26 12.155-29.345c0-7.69-2.082-15.058-5.971-21.469l35.582-35.582c11.829 12.789 22.459 27.634 23.744 44.276 1.586 20.535-10.785 43.657-37.817 70.689zm-72.238-42.71c-4.061-4.061-6.297-9.459-6.297-15.203 0-5.743 2.236-11.142 6.297-15.203s9.459-6.297 15.202-6.297 11.142 2.236 15.203 6.297c4.062 4.061 6.298 9.459 6.298 15.202s-2.236 11.142-6.298 15.203c-4.061 4.061-9.459 6.297-15.203 6.297-5.742.001-11.141-2.235-15.202-6.296zm-51.307 51.306c4.851 4.851 4.851 12.744 0 17.595-4.851 4.852-12.744 4.852-17.595 0-4.851-4.851-4.851-12.744 0-17.595 2.425-2.426 5.611-3.638 8.797-3.638s6.373 1.212 8.798 3.638zm169.169-115.552c-6.823-10.946-15.649-20.645-24.311-29.306-9.247-9.247-18.914-17.731-29.282-24.199-4.679-20.498-.02-41.961 12.484-58.609l99.604 99.605c-16.613 12.476-38.035 17.145-58.495 12.509zm80.313-154.356c11.264 0 20.427 9.164 20.427 20.428 0 11.263-9.163 20.427-20.427 20.427s-20.427-9.164-20.427-20.427c0-11.264 9.163-20.428 20.427-20.428z"/><path d="m221.781 435.59h-.007c-5.523 0-9.996 4.477-9.996 10s4.48 10 10.003 10 10-4.477 10-10-4.477-10-10-10z"/></g></g></svg>