<svg id="Layer_1" enable-background="new 0 0 512.002 512.002" height="512" viewBox="0 0 512.002 512.002" width="512" xmlns="http://www.w3.org/2000/svg"><g><g clip-rule="evenodd" fill-rule="evenodd"><path d="m235.062 347.65c-29.713-16.421-54.29-40.998-70.711-70.711l-19.127 19.127c-7.779 7.779-7.779 20.506 0 28.284l3.656 3.655 35.116 35.117 3.655 3.655c7.778 7.778 20.506 7.778 28.284 0z" fill="#6d91ac"/><path d="m183.996 363.123-35.116-35.117-130.005 122.695c-12 11.325-11.666 30.76 0 42.426s31.103 11.999 42.426 0z" fill="#b278d3"/><circle cx="322.001" cy="190.001" fill="#cff5fd" r="140"/><path d="m182.001 190.001c0-77.32 62.68-140 140-140s140 62.68 140 140-62.68 140-140 140c-77.319 0-140-62.681-140-140zm-40 0c0 99.411 80.589 180 180 180s180-80.589 180-180-80.589-180-180-180-180 80.589-180 180z" fill="#b278d3"/><g fill="#88df8e"><path d="m252.001 183.5c0 47.195 40.673 94.405 70 94.405s70-47.21 70-94.405c0-38.826-31.34-70.301-70-70.301-38.66.001-70 31.475-70 70.301z"/><path d="m322.001 330c24.619 0 47.754-6.355 67.854-17.514l-.003-.009c-5.197-20.418-19.429-37.327-38.142-46.173l-.75-.573c-9.712 7.65-19.879 12.175-28.959 12.175-9.118 0-19.334-4.564-29.082-12.272l-.673.692c-18.69 8.852-32.904 25.75-38.096 46.152l-.002.01c20.1 11.158 43.235 17.512 67.853 17.512z"/></g></g><g><path d="m322.002 0c-104.767 0-190 85.233-190 190 0 30.548 7.257 59.428 20.121 85.026l-13.969 13.97c-10.466 10.464-11.56 26.796-3.301 38.499l-122.843 115.934c-7.588 7.162-11.852 16.968-12.006 27.611-.157 10.874 4.144 21.502 11.8 29.159 7.521 7.521 17.908 11.804 28.581 11.804.191 0 .384-.001.576-.004 10.644-.153 20.45-4.417 27.612-12.006l115.934-122.841c5.015 3.544 10.995 5.461 17.285 5.461 8.029 0 15.563-3.112 21.213-8.763l13.97-13.969c25.598 12.862 54.479 20.119 85.027 20.119 104.767 0 190-85.234 190-190s-85.234-190-190-190zm-267.973 486.264c-3.42 3.624-8.163 5.661-13.356 5.736-5.504.069-10.87-2.087-14.727-5.943-3.856-3.857-6.023-9.225-5.943-14.727.075-5.192 2.112-9.935 5.735-13.355l122.939-116.026 21.378 21.378zm154.834-126.557c-1.873 1.873-4.384 2.905-7.07 2.905-2.688 0-5.198-1.032-7.071-2.905l-42.427-42.426c-3.898-3.899-3.898-10.243.001-14.142l10.127-10.127c14.645 22.609 33.959 41.923 56.568 56.568zm113.139.293c-93.738 0-170-76.262-170-170s76.262-170 170-170 170 76.262 170 170c0 93.739-76.262 170-170 170z"/><path d="m322.002 40c-23.514 0-46.041 5.299-66.957 15.75-4.94 2.468-6.944 8.475-4.476 13.415s8.474 6.945 13.415 4.476c18.115-9.051 37.635-13.641 58.018-13.641 71.683 0 130 58.318 130 130 0 44.572-22.551 83.971-56.839 107.402-5.936-13.428-15.439-24.962-27.502-33.367 2.821-2.927 5.57-6.089 8.217-9.477 16.602-21.243 26.123-47.143 26.123-71.059 0-44.278-35.888-80.3-79.999-80.3-44.112 0-80.001 36.022-80.001 80.3 0 23.916 9.521 49.816 26.124 71.059 2.645 3.385 5.392 6.544 8.21 9.47-12.074 8.407-21.58 19.933-27.512 33.362-34.279-23.432-56.823-62.826-56.823-107.39 0-20.383 4.589-39.901 13.639-58.011 2.469-4.94.465-10.947-4.476-13.416-4.939-2.47-10.946-.465-13.415 4.475-10.449 20.911-15.748 43.437-15.748 66.951 0 82.71 67.29 150 150.001 150 82.71 0 150-67.29 150-150s-67.289-149.999-149.999-149.999zm-60.001 143.5c0-33.25 26.916-60.3 60.001-60.3 33.084 0 59.999 27.051 59.999 60.3 0 19.538-7.976 40.949-21.882 58.743-12.183 15.589-27.145 25.662-38.117 25.662-10.974 0-25.936-10.073-38.119-25.662-13.907-17.794-21.882-39.205-21.882-58.743zm4.298 123.946c5.031-12.577 14.179-23.089 26.043-29.876 9.992 6.671 20.225 10.335 29.659 10.335s19.666-3.664 29.657-10.334c11.849 6.782 21.013 17.297 26.049 29.873-16.893 8.046-35.781 12.556-55.705 12.556-19.923 0-38.81-4.51-55.703-12.554z"/><path d="m298.23 211.353c1.952 1.952 4.512 2.928 7.07 2.928 2.56 0 5.119-.977 7.072-2.93 3.904-3.906 3.903-10.237-.002-14.142-6.96-6.958-16.213-10.791-26.055-10.791-5.522 0-10 4.477-10 10s4.478 10 10 10c4.501 0 8.732 1.753 11.915 4.935z"/><path d="m338.702 214.281c2.56 0 5.118-.976 7.071-2.929 3.182-3.182 7.412-4.934 11.912-4.934 5.522 0 10-4.477 10-10s-4.478-10-10-10c-9.843 0-19.096 3.833-26.055 10.792-3.905 3.905-3.905 10.237 0 14.143 1.954 1.952 4.512 2.928 7.072 2.928z"/><path d="m223.008 101.006c2.258 0 4.53-.761 6.399-2.319 4.243-3.536 4.816-9.841 1.281-14.084-3.537-4.243-9.843-4.815-14.084-1.28l-.006.005c-4.243 3.536-4.813 9.839-1.278 14.082 1.978 2.372 4.823 3.596 7.688 3.596z"/></g></g></svg>