<?xml version="1.0" encoding="iso-8859-1"?>
<!-- Uploaded to: SVG Repo, www.svgrepo.com, Generator: SVG Repo Mixer Tools -->
<svg version="1.1" id="Layer_1" xmlns="http://www.w3.org/2000/svg" xmlns:xlink="http://www.w3.org/1999/xlink" 
	 viewBox="0 0 498.648 498.648" xml:space="preserve">
<rect x="193.324" y="330.648" style="fill:#00233F;" width="112" height="168"/>
<polygon style="fill:#0C537A;" points="311.572,275.824 468.428,329.416 491.484,498.648 256.492,498.648 "/>
<polygon style="fill:#00233F;" points="311.572,275.824 433.348,344.672 460.748,498.648 256.492,498.648 "/>
<polygon style="fill:#037193;" points="187.068,275.824 30.22,329.416 7.164,498.648 242.164,498.648 "/>
<polygon style="fill:#0C537A;" points="167.476,373.344 30.22,329.416 7.164,498.648 242.164,498.648 "/>
<g>
	<polygon style="fill:#00233F;" points="187.068,275.824 65.3,344.672 37.9,498.648 242.164,498.648 	"/>
	<path style="fill:#00233F;" d="M333.412,106.648c0,40.12-30.216,72-67.504,72h-33.176c-37.272,0-67.504-31.88-67.504-72l0,0
		c0-40.136,30.224-72,67.504-72h33.176C303.196,34.648,333.412,66.512,333.412,106.648L333.412,106.648z"/>
</g>
<polygon style="fill:#F9BDA0;" points="309.66,306.648 188.988,306.648 197.036,210.648 301.62,210.648 "/>
<polygon style="fill:#E28F71;" points="309.66,306.648 249.124,306.648 188.988,210.648 301.62,210.648 "/>
<path style="fill:#FCCCB9;" d="M330.788,127.368c0,70.872-35.704,135-81.456,135c-45.768,0-81.488-64.128-81.488-135
	c0-70.88,35.72-82.68,81.488-82.68C295.084,44.688,330.788,56.48,330.788,127.368z"/>
<path style="fill:#F9BDA0;" d="M249.332,44.688c45.752,0,81.456,11.8,81.456,82.68c0,70.872-35.704,135-81.456,135"/>
<polygon style="fill:#E8ECEF;" points="247.348,450.128 175.236,352.264 149.196,282.472 185.892,267.096 249.332,307.248 
	312.756,267.096 349.444,282.472 323.412,352.264 251.308,450.128 249.276,453.584 "/>
<polyline style="fill:#C4CED6;" points="249.332,307.248 312.756,267.096 349.444,282.472 323.412,352.264 251.308,450.128 
	249.276,453.584 247.348,450.128 "/>
<g>
	<polygon style="fill:#FFFFFF;" points="185.892,267.096 249.332,307.248 175.252,346.36 	"/>
	<polygon style="fill:#FFFFFF;" points="312.756,267.096 249.332,307.248 323.404,346.36 	"/>
</g>
<circle style="fill:#BADADD;" cx="211.244" cy="149.96" r="22.28"/>
<path style="fill:#13475E;" d="M211.292,176.248c-14.496,0-26.296-11.792-26.296-26.288s11.8-26.28,26.296-26.28
	c14.488,0,26.264,11.792,26.264,26.28C237.556,164.456,225.772,176.248,211.292,176.248z M211.292,131.68
	c-10.088,0-18.296,8.2-18.296,18.28c0,10.088,8.208,18.288,18.296,18.288c10.072,0,18.264-8.2,18.264-18.288
	C229.556,139.88,221.356,131.68,211.292,131.68z"/>
<path style="fill:#13475E;" d="M185.324,154.648h-16c-2.208,0-4-1.792-4-4s1.792-4,4-4h16c2.208,0,4,1.792,4,4
	S187.532,154.648,185.324,154.648z"/>
<circle style="fill:#7DA7AA;" cx="287.364" cy="149.968" r="22.28"/>
<path style="fill:#13475E;" d="M287.364,176.248c-14.496,0-26.28-11.792-26.28-26.28c0-14.496,11.792-26.288,26.28-26.288
	s26.28,11.792,26.28,26.288C313.652,164.464,301.86,176.248,287.364,176.248z M287.364,131.68c-10.08,0-18.28,8.2-18.28,18.288
	c0,10.08,8.2,18.28,18.28,18.28s18.28-8.2,18.28-18.28C305.652,139.88,297.452,131.68,287.364,131.68z"/>
<g>
	<path style="fill:#13475E;" d="M329.324,154.648h-16c-2.208,0-4-1.792-4-4s1.792-4,4-4h16c2.208,0,4,1.792,4,4
		S331.532,154.648,329.324,154.648z"/>
	<path style="fill:#13475E;" d="M263.9,161.336c-2.208,0-4-1.792-4-4c0-5.832-4.744-10.576-10.576-10.576
		s-10.576,4.744-10.576,10.576c0,2.208-1.792,4-4,4s-4-1.792-4-4c0-10.24,8.336-18.576,18.576-18.576s18.576,8.336,18.576,18.576
		C267.9,159.544,266.108,161.336,263.9,161.336z"/>
</g>
<g>
	<path style="fill:#00233F;" d="M168.324,116.624c-4.336-1.896-3.472-14.736,0.344-23.424c3.832-8.704,10.456-14.2,14.768-12.296
		c4.344,1.904,7.936,12.784,0.928,19.192"/>
	<path style="fill:#00233F;" d="M330.308,116.44c4.344-1.912,3.52-14.744-0.28-23.432c-3.816-8.68-10.408-14.168-14.752-12.256
		c-4.328,1.912-7.96,12.808-0.952,19.192"/>
	<path style="fill:#00233F;" d="M359.916,85.664c0,9.152-49.512,16.536-110.592,16.536S138.74,94.808,138.74,85.664
		s49.504-2.6,110.584-2.6S359.916,76.52,359.916,85.664z"/>
</g>
<path style="fill:#037193;" d="M249.324,0c-47.464,0-85.92,40.784-85.92,80.36c0,2.016,0.168,3.816,0.368,5.576
	c23.184,8.264,53,5.248,85.552,5.248c32.56,0,62.376,3.016,85.56-5.248c0.184-1.768,0.36-3.56,0.36-5.576
	C335.244,40.784,296.788,0,249.324,0z"/>
<path style="fill:#0C537A;" d="M163.396,80.36c0,2.016,0.168,3.816,0.368,5.576c23.184,8.264,53,5.248,85.552,5.248
	c32.56,0,62.376,3.016,85.56-5.248c0.184-1.768,0.36-3.56,0.36-5.576c0-39.576-38.456-80.36-85.92-80.36"/>
<g>
	<path style="fill:#00233F;" d="M249.324,99.184c32.56,0,62.376-4.984,85.56-13.248c0.184-1.768,0.36-3.56,0.36-5.576
		c0-39.576-38.456-80.36-85.92-80.36"/>
	<path style="fill:#00233F;" d="M204.212,220.688c-0.2-0.224-0.312-0.376-0.312-0.376S203.98,220.528,204.212,220.688z"/>
	<path style="fill:#00233F;" d="M249.324,197.872c-8-0.424-23.28,0.288-32.096,11.456c-9.344,11.8-12.2,11.912-13.056,11.36
		c1.36,1.472,7.336,6.344,22.416-1.592c10.792-5.672,14.736-6.416,22.736-6.176V197.872z"/>
	<path style="fill:#00233F;" d="M294.428,220.688c0.2-0.224,0.312-0.376,0.312-0.376S294.66,220.528,294.428,220.688z"/>
	<path style="fill:#00233F;" d="M249.324,197.872c8-0.424,23.272,0.288,32.088,11.456c9.344,11.8,12.208,11.912,13.056,11.36
		c-1.36,1.472-7.32,6.344-22.416-1.592c-10.784-5.672-14.728-6.416-22.728-6.176V197.872z"/>
	<polygon style="fill:#00233F;" points="256.028,314.648 273.868,466.6 248.228,494.928 222.596,466.144 240.428,314.648 	"/>
</g>
<polygon style="fill:#0C537A;" points="256.028,314.648 269.556,338.304 247.34,354.496 226.9,338.648 240.428,314.648 "/>
<polyline style="fill:#00233F;" points="241.324,314.648 256.028,314.648 269.556,338.304 247.34,354.496 "/>
<path style="fill:#BADADD;" d="M395.052,406.648c0,1.128-2.088,4-4.656,4h-54.672c-2.584,0-4.672-2.872-4.672-4l0,0
	c0-1.128,2.088-4,4.672-4h54.672C392.972,402.648,395.052,405.52,395.052,406.648L395.052,406.648z"/>
<circle style="fill:#FFFFFF;" cx="248.228" cy="471.688" r="8"/>
</svg>