<?xml version="1.0" encoding="utf-8"?>
<!-- Uploaded to: SVG Repo, www.svgrepo.com, Generator: SVG Repo Mixer Tools -->
<svg fill="#000000" height="800px" width="800px" version="1.2" baseProfile="tiny" id="Layer_1" xmlns="http://www.w3.org/2000/svg" xmlns:xlink="http://www.w3.org/1999/xlink"
	  viewBox="-351 153 256 256" xml:space="preserve">
<path d="M-346.4,388.4H-102v16.9h-244.4V388.4z M-224.2,155.9c15.5,0,28,12.6,28,28s-12.6,28-28,28s-28-12.6-28-28
	S-239.7,155.9-224.2,155.9z M-319.5,340.3c5,0,9.3-2.3,12.1-6c0.2-0.2,0.5-0.4,0.7-0.6l33.6-31.3c1.3-1.3,2.2-2.8,3.1-4.3l10.7-23
	l-0.5,40.5l-47.1,25.6c-8.6,4.7-12.6,14.8-9.5,24c3.1,9.2,12.3,15,21.9,13.8l70.4-18.2l70.4,18.2c9.6,1.3,18.9-4.4,21.9-13.8
	c3-9.3-1-19.4-9.5-24l-47.1-25.6l-0.5-40.5l10.7,23c0.7,1.6,1.8,3.1,3.1,4.3l33.6,31.3c0.2,0.2,0.5,0.4,0.7,0.6
	c2.8,3.6,7.2,6,12.1,6c8.4,0,15.2-6.8,15.2-15.2c0-4.7-2-8.8-5.3-11.5c-0.4-0.5-0.8-1-1.3-1.5l-31.8-29.5l-20.5-44.1
	c-5.6-11.2-13.6-18.3-25.8-18.3h-51.7c-12.2,0-20.2,7.1-25.8,18.3l-20.5,44.1l-31.8,29.5c-0.4,0.4-0.8,1-1.3,1.5
	c-3.3,2.8-5.3,6.9-5.3,11.5C-334.8,333.5-327.9,340.3-319.5,340.3z"/>
</svg>