<!DOCTYPE svg PUBLIC "-//W3C//DTD SVG 1.1//EN" "http://www.w3.org/Graphics/SVG/1.1/DTD/svg11.dtd">
<!-- Uploaded to: SVG Repo, www.svgrepo.com, Transformed by: SVG Repo Mixer Tools -->
<svg fill="#ffffff" height="800px" width="800px" version="1.1" id="Layer_1" xmlns="http://www.w3.org/2000/svg" xmlns:xlink="http://www.w3.org/1999/xlink" viewBox="0 0 512 512" xml:space="preserve" stroke="#ffffff">
<g id="SVGRepo_bgCarrier" stroke-width="0"/>
<g id="SVGRepo_tracerCarrier" stroke-linecap="round" stroke-linejoin="round"/>
<g id="SVGRepo_iconCarrier"> <g> <g> <path d="M487.142,226.743c-6.782-6.33-14.769-10.791-23.404-13.217v-5.62c0-15.765-6.611-30.977-18.14-41.738 c-11.69-10.913-26.942-16.314-42.966-15.208c-28.224,1.947-50.975,24.699-52.921,52.923 c-1.889,27.401,16.153,51.899,41.686,59.017c-0.05,0.518-0.108,1.034-0.144,1.555c-1.104,16.017,4.298,31.276,15.209,42.966 c7.936,8.502,18.296,14.331,29.512,16.804v8.716c0,6.716,1.175,13.162,3.315,19.152V459.86c0,15.267-12.422,27.689-27.689,27.689 h-72.236V12.225C339.364,5.474,333.89,0,327.139,0H18.942C12.192,0,6.717,5.474,6.717,12.225v487.551 c0,6.75,5.474,12.225,12.225,12.225h305.231h2.967h84.461c28.75,0,52.138-23.39,52.138-52.138v-0.776 c23.172-1.586,41.543-20.931,41.543-44.499v-36.784v-5.137V268.478C505.283,252.715,498.671,237.502,487.142,226.743z M314.915,487.551H31.167V227.728h214.876c6.75,0,12.225-5.474,12.225-12.225s-5.474-12.225-12.225-12.225H31.167V24.449h283.748 V487.551z M398.973,239.624c-15.145-3.674-25.977-17.997-24.87-34.06c1.11-16.113,14.099-29.101,30.212-30.212 c9.18-0.636,17.919,2.453,24.601,8.688c6.689,6.243,10.373,14.72,10.373,23.864v4.187 C422.146,214.784,407.477,225.194,398.973,239.624z M460.424,332.942v-19.606c0-6.75-5.474-12.225-12.225-12.225 c-9.145,0-17.619-3.683-23.864-10.373c-6.237-6.682-9.324-15.419-8.689-24.601c1.111-16.113,14.099-29.101,30.212-30.212 c9.176-0.634,17.919,2.453,24.602,8.689c6.689,6.243,10.373,14.717,10.373,23.863v94.723 C468.879,358.353,460.424,346.617,460.424,332.942z M480.833,414.586c0,10.072-7.431,18.419-17.094,19.907V381.9 c5.216,3.136,10.974,5.453,17.094,6.796V414.586z"/> </g> </g> <g> <g> <path d="M268.711,60.356H77.371c-6.75,0-12.225,5.474-12.225,12.225v95.026c0,6.75,5.474,12.225,12.225,12.225h191.34 c6.75,0,12.225-5.473,12.225-12.225V72.581C280.936,65.83,275.462,60.356,268.711,60.356z M256.487,155.382H89.596V84.805h166.89 V155.382z"/> </g> </g> <g> <g> <path d="M173.042,244.542c-62.374,0-113.12,50.746-113.12,113.12s50.746,113.12,113.12,113.12 c62.374,0,113.12-50.746,113.12-113.12S235.416,244.542,173.042,244.542z M173.042,446.333c-48.893,0-88.671-39.778-88.671-88.671 s39.778-88.671,88.671-88.671s88.671,39.778,88.671,88.671S221.935,446.333,173.042,446.333z"/> </g> </g> <g> <g> <path d="M173.042,296.267c-33.854,0-61.397,27.541-61.397,61.396s27.542,61.397,61.397,61.397 c33.853,0,61.396-27.542,61.396-61.397S206.895,296.267,173.042,296.267z M173.042,394.61c-20.372,0-36.948-16.575-36.948-36.948 s16.575-36.947,36.948-36.947s36.947,16.574,36.947,36.947S193.414,394.61,173.042,394.61z"/> </g> </g> <g> <g> <path d="M294.104,213.116c-0.147-0.784-0.391-1.553-0.697-2.286c-0.306-0.746-0.685-1.455-1.125-2.115 c-0.44-0.672-0.953-1.296-1.516-1.858c-0.562-0.562-1.186-1.076-1.858-1.516c-0.66-0.439-1.369-0.819-2.115-1.125 c-0.733-0.306-1.502-0.537-2.286-0.697c-1.576-0.318-3.202-0.318-4.779,0c-0.77,0.16-1.542,0.391-2.286,0.697 c-0.735,0.306-1.444,0.686-2.104,1.125c-0.672,0.44-1.296,0.954-1.858,1.516c-0.562,0.562-1.076,1.186-1.528,1.858 c-0.44,0.66-0.819,1.369-1.125,2.115c-0.306,0.734-0.538,1.502-0.697,2.286c-0.159,0.782-0.231,1.589-0.231,2.384 c0,0.793,0.073,1.601,0.231,2.396c0.159,0.77,0.403,1.54,0.709,2.286c0.306,0.734,0.672,1.443,1.125,2.103 c0.44,0.672,0.954,1.296,1.516,1.858c0.562,0.576,1.186,1.076,1.858,1.528c0.66,0.44,1.369,0.819,2.104,1.125 c0.744,0.306,1.516,0.538,2.286,0.697c0.793,0.159,1.601,0.232,2.396,0.232c0.793,0,1.601-0.075,2.383-0.232 c0.784-0.159,1.554-0.391,2.286-0.697c0.746-0.306,1.455-0.685,2.115-1.125c0.672-0.452,1.296-0.952,1.858-1.528 c0.562-0.562,1.076-1.186,1.516-1.858c0.44-0.66,0.819-1.369,1.125-2.103c0.306-0.746,0.538-1.516,0.697-2.286 c0.159-0.795,0.245-1.603,0.245-2.396C294.349,214.705,294.263,213.897,294.104,213.116z"/> </g> </g> </g>
</svg>