<!DOCTYPE svg PUBLIC "-//W3C//DTD SVG 1.1//EN" "http://www.w3.org/Graphics/SVG/1.1/DTD/svg11.dtd">
<!-- Uploaded to: SVG Repo, www.svgrepo.com, Transformed by: SVG Repo Mixer Tools -->
<svg fill="#de9804" height="800px" width="800px" version="1.1" id="Layer_1" xmlns="http://www.w3.org/2000/svg" xmlns:xlink="http://www.w3.org/1999/xlink" viewBox="0 0 512 512" xml:space="preserve">
<g id="SVGRepo_bgCarrier" stroke-width="0"/>
<g id="SVGRepo_tracerCarrier" stroke-linecap="round" stroke-linejoin="round"/>
<g id="SVGRepo_iconCarrier"> <g> <g> <g> <path d="M256,0C114.842,0,0.001,114.842,0.001,256.002C0.001,397.16,114.842,512,256,512c141.159,0,256-114.84,256-255.998 C512.001,114.842,397.16,0,256,0z M256,490.665c-129.393,0-234.664-105.269-234.664-234.663 C21.336,126.607,126.607,21.335,256,21.335c129.396,0,234.664,105.271,234.664,234.667 C490.666,385.396,385.396,490.665,256,490.665z"/> <path d="M270.398,85.941c5.871,0.498,11.032-3.859,11.528-9.731c0.496-5.87-3.859-11.032-9.73-11.528 c-5.373-0.454-10.822-0.685-16.198-0.685c-105.869,0-192,86.133-192,192.005c0,5.892,4.776,10.667,10.668,10.667 c5.891,0,10.668-4.776,10.668-10.667c0-94.108,76.56-170.67,170.665-170.67C260.776,85.332,265.62,85.537,270.398,85.941z"/> <path d="M437.334,245.334c-5.892,0-10.668,4.776-10.668,10.668c0,94.105-76.561,170.665-170.668,170.665 c-4.822,0-9.662-0.205-14.386-0.608c-5.878-0.5-11.037,3.851-11.537,9.721c-0.501,5.87,3.851,11.036,9.72,11.537 c5.327,0.454,10.779,0.686,16.203,0.686c105.871,0,192.003-86.131,192.003-192C448.002,250.111,443.226,245.334,437.334,245.334z "/> <path d="M299.527,90.979l0.623,0.164c0.931,0.252,1.868,0.372,2.79,0.372c4.7,0,9.005-3.132,10.29-7.889 c1.537-5.687-1.827-11.543-7.515-13.081c-0.308-0.083-0.618-0.165-0.925-0.244c-5.708-1.453-11.516,1.997-12.97,7.706 C290.367,83.719,293.818,89.525,299.527,90.979z"/> <path d="M212.585,421.054l-0.886-0.234c-5.705-1.455-11.517,1.997-12.97,7.706c-1.452,5.709,1.998,11.516,7.707,12.97 l0.662,0.175c0.918,0.244,1.841,0.362,2.75,0.362c4.717,0,9.032-3.153,10.302-7.927 C221.667,428.412,218.279,422.569,212.585,421.054z"/> <path d="M233.672,344.476l50.486-29.149c0.299-0.173,0.587-0.357,0.862-0.554l49.175-28.391c5.478-3.06,10.03-7.56,13.17-13.023 c9.555-16.631,3.802-37.936-12.81-47.483l-48.898-28.228c-0.507-0.329-1.011-0.642-1.499-0.919l-48.768-28.157 c-5.692-3.752-12.308-5.734-19.164-5.734c-19.237,0-34.888,15.651-34.888,34.89v116.598c0,0.426,0.025,0.845,0.074,1.258 c0.203,5.676,1.807,11.25,4.672,16.198c6.207,10.721,17.766,17.381,30.165,17.381 C222.352,349.163,228.382,347.54,233.672,344.476z M204.547,321.092c-1.195-2.063-1.824-4.398-1.822-6.754 c0-0.353-0.017-0.705-0.052-1.053V197.728c0-7.475,6.079-13.555,13.553-13.555c2.717,0,5.33,0.796,7.555,2.3 c0.208,0.142,0.422,0.275,0.642,0.402l49.119,28.359c0.228,0.13,0.444,0.273,0.662,0.416c0.173,0.114,0.35,0.224,0.531,0.329 l49.171,28.386c6.429,3.695,8.655,11.935,4.96,18.364c-1.221,2.124-2.989,3.869-5.111,5.047c-0.054,0.029-0.107,0.059-0.158,0.09 l-50.131,28.942c-0.299,0.173-0.587,0.357-0.863,0.555l-49.612,28.644c-2.058,1.192-4.389,1.822-6.743,1.822 C211.437,327.828,206.953,325.247,204.547,321.092z"/> </g> </g> </g> </g>
</svg>