<?xml version="1.0" encoding="iso-8859-1"?>
<!-- Uploaded to: SVG Repo, www.svgrepo.com, Generator: SVG Repo Mixer Tools -->
<svg height="800px" width="800px" version="1.1" id="Layer_1" xmlns="http://www.w3.org/2000/svg" xmlns:xlink="http://www.w3.org/1999/xlink" 
	 viewBox="0 0 484.336 484.336" xml:space="preserve">
<ellipse style="fill:#C68D1A;" cx="242.168" cy="266.248" rx="90" ry="29.504"/>
<polygon style="fill:#E28F71;" points="324.08,434.168 162.088,434.168 157.96,258.168 326.384,258.168 "/>
<path style="fill:#FFDC6C;" d="M461.272,304.736L339.72,262.944l2.568,1.224l-15.896-6.616
	c-6.344,20.736-41.584,42.784-84.216,42.784c-42.648,0-77.872-22-84.208-42.736l-15.92,6.68l2.576-1.104l-121.56,41.56L0,474.168
	h30.736h156.736H235h14.328h49.736h154.528h30.736L461.272,304.736z"/>
<path style="fill:#EABC49;" d="M90.168,474.168h97.304H235h14.328h49.736h154.528h30.736l-23.064-169.432l-121.552-41.792
	l2.568,1.224l-15.896-6.616c-6.344,28.736-41.584,42.784-84.216,42.784c-42.648,0-75.664-20.688-84.208-42.736l-15.92,6.68
	l2.576-1.104l-121.552,41.56"/>
<path style="fill:#DDA528;" d="M234.168,474.168h15.168h49.736H453.6h30.736l-23.064-169.432L339.72,262.944l2.568,1.224
	l-15.896-6.616c-6.344,20.736-42,42.304-84.64,42.304"/>
<polyline style="fill:#C68D1A;" points="418.168,474.168 453.6,474.168 484.336,474.168 462.384,304.264 "/>
<polygon style="fill:#F9BDA0;" points="303.408,279.656 184.44,260.464 190.792,178.168 295.368,178.168 "/>
<polygon style="fill:#E28F71;" points="303.424,279.656 255.616,294.136 182.752,178.168 295.376,178.168 "/>
<path style="fill:#FCCCB9;" d="M317.672,112.872c0-70.032-28.12-94.424-76.12-94.704l0.616-5.16v0.016v-0.016v0.032
	c-48,0.28-75.712,29.072-75.712,99.104s27.712,132.896,75.712,134.4v0.144v-0.064v0.064v-0.144
	C290.168,245.04,317.672,182.904,317.672,112.872z"/>
<path style="fill:#F9BDA0;" d="M242.168,250.168v-3.488v-0.064v0.064v-0.144c48-1.504,75.504-63.64,75.504-133.672
	s-25.744-93.032-73.744-93.312l-1.76-6.544v0.016v-0.016v-2.84"/>
<path style="fill:#77502A;" d="M162.08,90.448c-4.328-1.904-3.472-30.736,0.344-39.424c3.832-8.704,10.456-6.2,14.768-4.296
	c4.344,1.904,23.936,20.784,16.936,27.184"/>
<g>
	<path style="fill:#00233F;" d="M197.976,194.512c-0.2-0.232-0.312-0.376-0.312-0.376S197.736,194.352,197.976,194.512z"/>
	<path style="fill:#00233F;" d="M288.192,194.512c0.2-0.232,0.312-0.376,0.312-0.376S288.424,194.352,288.192,194.512z"/>
</g>
<path style="fill:#77502A;" d="M178.392,82.056c0,0,6.232,18.704-2.512,29.936c0,0-2.496,1.248-3.096,6.856
	c-0.64,5.608,5.968,21.984,12.512,53.784c2.168,10.544,8.032,39.16,25.512,29.168l4.144,1.872c0,0-4.792,24.328,27.208,23.704
	v21.832c0,0-32.208,3.112-54.664-28.08c-22.472-31.168-23.904-75.456-23.28-100.408c0.64-24.952-7.896-37.456-2.896-46.184
	C166.32,65.824,178.392,82.056,178.392,82.056z"/>
<g>
	<path style="fill:#5E3A1C;" d="M305.944,82.056c0,0-6.232,18.704,2.496,29.936c0,0,2.496,1.248,3.112,6.856
		c0.64,5.608-5.968,21.984-12.512,53.784c-2.16,10.544-8.048,39.16-25.504,29.168l-4.144,1.872c0,0,4.776,24.328-27.224,23.704
		v21.832c0,0,32.224,3.112,54.664-28.08c22.456-31.168,23.888-75.456,23.28-100.408c-0.64-24.952,7.88-37.456,2.896-46.184
		C318.016,65.824,305.944,82.056,305.944,82.056z"/>
	<path style="fill:#5E3A1C;" d="M319.064,90.264c4.344-1.92,11.528-30.752,7.72-39.44c-3.816-8.672-10.408-6.168-14.752-4.248
		c-4.328,1.904-23.952,20.8-16.952,27.184"/>
</g>
<circle style="fill:#BADADD;" cx="212.088" cy="126.336" r="17.616"/>
<path style="fill:#13475E;" d="M212.096,147.968c-11.928,0-21.624-9.704-21.624-21.624c0-11.912,9.696-21.608,21.624-21.608
	c11.912,0,21.608,9.696,21.608,21.608C233.704,138.264,224.008,147.968,212.096,147.968z M212.096,112.728
	c-7.512,0-13.624,6.104-13.624,13.608c0,7.512,6.112,13.624,13.624,13.624c7.504,0,13.608-6.112,13.608-13.624
	C225.704,118.832,219.6,112.728,212.096,112.728z"/>
<path style="fill:#13475E;" d="M194.168,130.168h-16c-2.208,0-4-1.792-4-4s1.792-4,4-4h16c2.208,0,4,1.792,4,4
	S196.376,130.168,194.168,130.168z"/>
<circle style="fill:#7DA7AA;" cx="272.248" cy="126.336" r="17.616"/>
<path style="fill:#13475E;" d="M272.256,147.968c-11.928,0-21.624-9.704-21.624-21.624c0-11.912,9.696-21.608,21.624-21.608
	c11.912,0,21.608,9.696,21.608,21.608C293.864,138.264,284.168,147.968,272.256,147.968z M272.256,112.728
	c-7.512,0-13.624,6.104-13.624,13.608c0,7.512,6.112,13.624,13.624,13.624c7.504,0,13.608-6.112,13.608-13.624
	C285.864,118.832,279.76,112.728,272.256,112.728z"/>
<g>
	<path style="fill:#13475E;" d="M306.168,130.168h-16c-2.208,0-4-1.792-4-4s1.792-4,4-4h16c2.208,0,4,1.792,4,4
		S308.376,130.168,306.168,130.168z"/>
	<path style="fill:#13475E;" d="M253.688,136.168c-2.208,0-4-1.792-4-4c0-4.144-3.368-7.512-7.512-7.512
		c-4.152,0-7.528,3.376-7.528,7.512c0,2.208-1.792,4-4,4s-4-1.792-4-4c0-8.552,6.968-15.512,15.528-15.512
		c8.552,0,15.512,6.96,15.512,15.512C257.688,134.376,255.904,136.168,253.688,136.168z"/>
</g>
<path style="fill:#7C4615;" d="M203.664,197.4c-0.16-0.216-0.248-0.376-0.248-0.376S203.472,197.248,203.664,197.4z"/>
<path style="fill:#77502A;" d="M242.168,174.592c-8-0.424-19.888,0.296-27.384,11.456c-7.968,11.8-10.416,11.92-11.152,11.36
	c1.168,1.472,6.248,6.344,19.136-1.592c9.2-5.68,19.4-6.416,19.4-6.176V174.592z"/>
<path style="fill:#7C4615;" d="M280.664,197.4c0.168-0.216,0.264-0.376,0.264-0.376S280.848,197.248,280.664,197.4z"/>
<path style="fill:#5E3A1C;" d="M242.168,174.592c8-0.424,19.848,0.296,27.376,11.456c7.968,11.8,10.44,11.92,11.144,11.36
	c-1.16,1.472-6.272,6.344-19.128-1.592c-9.192-5.68-19.392-6.416-19.392-6.176V174.592z"/>
<path style="fill:#EABC49;" d="M324.536,349.68c-17.984,52.472-86.904,80.144-158.032,62.08c-3.56-0.888-7.056-1.936-10.496-3.032
	c10.968,23.672,32.08,42.376,59.344,49.296c48.024,12.184,96.832-16.856,109.016-64.888
	C328.096,378.368,327.944,363.512,324.536,349.68z"/>
<path style="fill:#FFDC6C;" d="M156.704,409.4c90.016,65.8,156.576,2.84,169.528-50.72c-0.424-3.032-0.984-6.032-1.704-9
	c-17.984,52.472-86.904,80.144-158.032,62.08c-3.56-0.888-7.056-1.936-10.496-3.032"/>
<path style="fill:#FCF7C5;" d="M156.84,409.56c79.648,31.344,148.832-1.488,169.12-52.64c-0.408-2.44-0.84-4.84-1.424-7.232
	c-17.984,52.472-86.904,80.144-158.032,62.08c-3.56-0.888-7.056-1.936-10.496-3.032"/>
<path style="fill:#562300;" d="M326.048,356.104l0.928-5.968c0.176-1.16-0.616-2.232-1.776-2.424
	c-1.16-0.168-2.24,0.608-2.424,1.768l-0.928,5.968c-1.856,0.512-3.328,2.064-3.664,4.112l-0.96,6.16l10.064,1.576l0.976-6.168
	C328.592,359.088,327.648,357.184,326.048,356.104z"/>
<path style="fill:#281000;" d="M321.472,366.336l5.816,0.952l0.976-6.168c0.328-2.032-0.616-3.936-2.208-5.016l0.928-5.968
	c0.176-1.16-0.616-2.232-1.776-2.424"/>
<g>
	<path style="fill:#8C4719;" d="M320.16,357.48c-0.768,0.872-1.16,1.784-0.888,1.968c0.248,0.248,1.056-0.312,1.8-1.184
		c0.752-0.872,1.144-1.752,0.904-1.984C321.72,356.072,320.896,356.608,320.16,357.48z"/>
	<path style="fill:#8C4719;" d="M169.192,412.4c-0.904-0.216-1.784-0.408-2.688-0.64c-3.56-0.888-7.056-1.936-10.496-3.032
		c1.784,3.856,3.864,7.544,6.168,11.112C165.016,418.136,167.464,415.576,169.192,412.4z"/>
</g>
<path style="fill:#281000;" d="M156,408.728c1.784,3.856,3.864,7.544,6.168,11.112c1.584-0.952,3.048-2.168,4.336-3.608"/>
<path style="fill:#77502A;" d="M271.944,46.168c0,19.472-13.872,36-31,36h-61.08c-17.128,0-31-16.528-31-36l0,0
	c0-19.472,13.872-36,31-36h61.08C258.064,10.168,271.944,26.696,271.944,46.168L271.944,46.168z"/>
<path style="fill:#5E3A1C;" d="M326.44,50.168c0,17.952-12.8,32-28.576,32h-56.312c-15.8,0-28.584-14.048-28.584-32l0,0
	c0-17.952,12.792-32,28.584-32h56.312C313.648,18.168,326.44,32.216,326.44,50.168L326.44,50.168z"/>
</svg>