<?xml version="1.0" encoding="utf-8"?><!-- Uploaded to: SVG Repo, www.svgrepo.com, Generator: SVG Repo Mixer Tools -->
<svg width="800px" height="800px" viewBox="0 0 400 400" fill="none" xmlns="http://www.w3.org/2000/svg">
<path d="M105 179C93.0009 127 105.033 78.9999 151.001 64.9999M145 52.9999C286 25.9997 313.999 145 286 202" stroke="#000000" stroke-opacity="0.9" stroke-width="16" stroke-linecap="round" stroke-linejoin="round"/>
<path d="M129 150C144.866 144.478 173.622 132.155 178 112" stroke="#000000" stroke-opacity="0.9" stroke-width="14" stroke-linecap="round" stroke-linejoin="round"/>
<path d="M178 118C190.88 134.181 225.474 147.734 254 150" stroke="#000000" stroke-opacity="0.9" stroke-width="14" stroke-linecap="round" stroke-linejoin="round"/>
<path d="M123.243 175.251C115.347 176.443 112.485 182.173 112.485 191.266C112.485 197.328 117.7 202.337 128.132 206.292C139.91 300.986 261.78 300.986 269.11 198.664C278.728 191.529 283.537 186.375 283.537 183.201C283.537 177.37 281.787 173.26 272.723 169.699" stroke="#000000" stroke-opacity="0.9" stroke-width="16" stroke-linecap="round" stroke-linejoin="round"/>
<path d="M143.5 168.467C154.5 162.5 224.382 161.5 230 161.5C307.5 155 205.333 258.5 205.333 168.467" stroke="#000000" stroke-opacity="0.9" stroke-width="16" stroke-linecap="round" stroke-linejoin="round"/>
<path d="M139.394 172.57C144.854 222.57 195.455 209.938 195.455 161.75" stroke="#000000" stroke-opacity="0.9" stroke-width="16" stroke-linecap="round" stroke-linejoin="round"/>
<path d="M202.061 237.32C193.853 238.261 185.976 237.11 178.516 235.467" stroke="#000000" stroke-opacity="0.9" stroke-width="16" stroke-linecap="round" stroke-linejoin="round"/>
<path d="M67.4162 344.158C64.9063 347.794 65.8192 352.776 69.4553 355.286C73.0914 357.796 78.0738 356.883 80.5838 353.247L67.4162 344.158ZM153.61 285.619L161.397 287.455C162.055 284.663 161.168 281.733 159.072 279.774C156.976 277.816 153.992 277.129 151.251 277.975L153.61 285.619ZM242.57 285.619L240.85 277.806C237.183 278.614 234.57 281.864 234.57 285.619H242.57ZM328.071 356.998C330.279 360.825 335.172 362.137 338.998 359.929C342.825 357.721 344.137 352.828 341.929 349.002L328.071 356.998ZM80.5838 353.247C96.9197 329.582 107.203 317.543 117.384 309.936C127.435 302.425 137.859 298.852 155.969 293.264L151.251 277.975C133.375 283.491 120.373 287.729 107.807 297.119C95.3694 306.412 83.8411 320.363 67.4162 344.158L80.5838 353.247ZM244.289 293.432C249.447 292.297 256.191 293.372 264.331 297.01C272.363 300.599 280.956 306.331 289.355 313.265C306.225 327.193 321.139 344.985 328.071 356.998L341.929 349.002C333.887 335.064 317.624 315.856 299.542 300.927C290.464 293.432 280.637 286.771 270.859 282.402C261.188 278.08 250.732 275.632 240.85 277.806L244.289 293.432ZM145.824 283.783C144.034 291.373 144.402 302.822 151.74 312.55C159.289 322.559 172.865 329 193.919 329V313C176.052 313 168.083 307.648 164.513 302.915C160.732 297.901 160.405 291.659 161.397 287.455L145.824 283.783ZM193.919 329C215.077 329 229.442 322.534 238.525 313.361C247.432 304.364 250.57 293.438 250.57 285.619H234.57C234.57 289.595 232.843 296.358 227.155 302.104C221.642 307.672 211.681 313 193.919 313V329Z" fill="#000000" fill-opacity="0.9"/>
</svg>