<?xml version="1.0" encoding="iso-8859-1"?>
<!-- Uploaded to: SVG Repo, www.svgrepo.com, Generator: SVG Repo Mixer Tools -->
<svg fill="#000000" height="800px" width="800px" version="1.1" id="Layer_1" xmlns="http://www.w3.org/2000/svg" xmlns:xlink="http://www.w3.org/1999/xlink" 
	 viewBox="0 0 511.998 511.998" xml:space="preserve">
<g>
	<g>
		<path d="M245.396,209.244l-69.321-8.403l-44.679-29.696c3.975,0.977,14.954,4.171,26.681,8.76
			c-1.387-4.78-3.935-9.194-7.478-12.82c-5.686-5.818-13.46-9.122-21.594-9.18l-28.055-0.201
			c-16.96-0.122-30.764,13.632-30.717,30.582l0.283,103.442c0.022,8.114,3.277,15.883,9.043,21.592
			c4.068,4.026,9.151,6.786,14.64,8.045H55.863L29.871,189.138c-1.606-8.17-9.532-13.489-17.7-11.885
			c-8.17,1.606-13.491,9.531-11.885,17.7L28.67,339.35c1.39,7.07,7.588,12.168,14.793,12.168H84.53v52.221L37.98,429.231
			c-4.868,2.667-6.654,8.774-3.988,13.643s8.772,6.655,13.643,3.988l46.947-25.708l46.947,25.708
			c4.871,2.668,10.978,0.878,13.643-3.988c2.667-4.868,0.881-10.976-3.988-13.643l-46.551-25.492v-52.221h44.362
			c8.326,0,15.076-6.75,15.076-15.076c0-5.044-2.485-9.496-6.288-12.233l14.026,3.27v99.103c0,12.07,9.785,21.855,21.855,21.855
			s21.855-9.785,21.855-21.855v-116.45c0-10.16-6.999-18.979-16.893-21.285l-40.768-9.504l0.512-31.387l-41.722-42.876
			l42.864,28.489c2.367,1.573,5.068,2.571,7.89,2.912l73.612,8.923c10.019,1.21,19.065-5.932,20.272-15.889
			C262.495,219.531,255.382,210.456,245.396,209.244z"/>
	</g>
</g>
<g>
	<g>
		<circle cx="138.691" cy="103.756" r="40.197"/>
	</g>
</g>
<g>
	<g>
		<path d="M498.263,256.437H229.056c-7.586,0-13.736,6.15-13.736,13.736s6.15,13.736,13.736,13.736h6.68v149.468
			c0,8.317,6.742,15.06,15.06,15.06h0.06c8.317,0,15.06-6.742,15.06-15.06V283.909h196.372v149.468c0,8.317,6.742,15.06,15.06,15.06
			h0.06c8.317,0,15.06-6.742,15.06-15.06V283.909h5.792c7.586,0,13.736-6.15,13.736-13.736
			C511.999,262.587,505.849,256.437,498.263,256.437z"/>
	</g>
</g>
<g>
	<g>
		<path d="M404.555,223.059h-20.489v-70.055l17.247-42.213c2.099-5.138-0.364-11.006-5.503-13.105
			c-5.137-2.1-11.006,0.365-13.105,5.502c-15.214,37.235-24.536,60.052-39.599,96.916c-2.099,5.139,0.365,11.007,5.503,13.106
			c5.141,2.1,11.007-0.366,13.105-5.502l2.251-5.508v30.909c0,5.551,4.499,10.05,10.05,10.05h30.539c5.551,0,10.05-4.5,10.05-10.05
			C414.605,227.558,410.105,223.059,404.555,223.059z"/>
	</g>
</g>
<g>
	<g>
		<path d="M324.995,224.251H286.33c-5.551,0-10.05,4.499-10.05,10.05s4.499,10.05,10.05,10.05h38.665
			c5.551,0,10.05-4.499,10.05-10.05S330.546,224.251,324.995,224.251z"/>
	</g>
</g>
</svg>