<?xml version="1.0" encoding="iso-8859-1"?>
<!-- Uploaded to: SVG Repo, www.svgrepo.com, Generator: SVG Repo Mixer Tools -->
<svg height="800px" width="800px" version="1.1" id="Layer_1" xmlns="http://www.w3.org/2000/svg" xmlns:xlink="http://www.w3.org/1999/xlink" 
	 viewBox="0 0 484.328 484.328" xml:space="preserve">
<path style="fill:#1A9AD3;" d="M461.272,314.359L339.72,274.055l0.224,1.152h-18.688c-12.552,16-43.16,37.776-79.088,37.776
	c-35.944,0-66.536-21.776-79.088-37.776h-18.688l0.216-0.624L23.064,314.967L0,483.207h30.736h156.736H235h14.328h49.736h154.528
	h30.736L461.272,314.359z"/>
<g>
	<path style="fill:#00233F;" d="M162.24,106.991c-4.72-2.08-12.496-33.536-8.344-43.024c4.168-9.496,11.408-6.768,16.096-4.68
		c4.752,2.072,8.672,22.672,1.032,29.672"/>
	<path style="fill:#00233F;" d="M321.536,106.783c4.752-2.096,12.592-33.544,8.424-43.024c-4.16-9.48-11.344-6.744-16.096-4.656
		c-4.72,2.096-8.672,22.712-1.032,29.68"/>
</g>
<path style="fill:#1982BC;" d="M461.272,314.359L339.72,274.055l0.224,1.152h-18.688c-12.552,16-43.16,37.776-79.088,37.776
	c-35.944,0-66.536-21.776-79.088-37.776h-18.688l0.216-1.672L0,483.207h30.736h156.736H235h14.328h49.736h154.528h30.736
	L461.272,314.359z"/>
<path style="fill:#11558C;" d="M461.272,314.359L339.72,274.055l0.224,1.152h-18.688c-12.552,16-43.16,35.512-79.088,35.512
	L235,483.207h14.328h49.736h154.528h30.736L461.272,314.359z"/>
<polygon style="fill:#F9BDA0;" points="303.408,291.207 182.736,291.207 190.792,195.207 295.368,195.207 "/>
<polygon style="fill:#E28F71;" points="303.424,293.255 255.616,392.231 182.752,195.207 295.376,195.207 "/>
<polygon style="fill:#D6D6D6;" points="305.336,299.007 242.168,467.135 179,299.007 242.176,299.679 "/>
<path style="fill:#FCCCB9;" d="M322.008,121.871c0-70.032-31.84-98.368-79.84-98.648v-0.032v0.016v-0.016v0.032
	c-48,0.28-79.84,28.616-79.84,98.648s31.84,133.352,79.84,134.856v0.144v-0.072v0.072v-0.144
	C290.168,255.223,322.008,191.903,322.008,121.871z"/>
<path style="fill:#F9BDA0;" d="M242.168,259.207v-2.336v-0.072v0.072v-0.144c48-1.504,79.84-64.832,79.84-134.856
	s-31.84-98.368-79.84-98.648v-0.032v0.016v-0.016v4.016"/>
<g>
	<path style="fill:#00233F;" d="M197.976,204.695c-0.2-0.224-0.312-0.376-0.312-0.376S197.736,204.535,197.976,204.695z"/>
	<path style="fill:#00233F;" d="M288.192,204.695c0.2-0.224,0.312-0.376,0.312-0.376S288.424,204.535,288.192,204.695z"/>
</g>
<g>
	<path style="fill:#00233F;" d="M295.44,69.279c0,0-57.504,23.672-122.832,1.672c0,0-50-13.328-4.672-50.664c0,0-7.328,12,8,6
		c15.344-6,71.344-48.672,103.344-7.336c19.384,25.048-5.088,44.216,12.656,44.664C298.44,63.775,295.44,69.279,295.44,69.279z"/>
	<path style="fill:#00233F;" d="M284.44,54.775c0,0,3,22.496,19,26s20.496,0,20.496,0s15.504-10.496,1.504-37s-38.496-35-52.496-25
		S284.44,54.775,284.44,54.775z"/>
</g>
<polygon style="fill:#D6D6D6;" points="178.088,258.599 142.088,273.895 167.24,343.319 234.168,445.991 234.168,299.783 "/>
<polygon style="fill:#FFFFFF;" points="179.072,258.599 240.264,299.783 168.488,337.439 "/>
<polygon style="fill:#D6D6D6;" points="306.248,258.599 342.248,273.895 317.088,343.319 250.168,445.991 250.168,299.783 "/>
<polygon style="fill:#FFFFFF;" points="305.272,258.599 244.08,299.783 315.856,337.439 "/>
<path style="fill:#11558C;" d="M250.168,307.207v16.608c0,4.144-3.856,7.504-8,7.504l0,0c-4.144,0-8-3.36-8-7.504v-16.608"/>
<polygon style="fill:#1982BC;" points="234.168,326.567 234.168,305.895 178.168,282.143 178.168,346.487 "/>
<polygon style="fill:#11558C;" points="234.168,326.567 234.168,305.895 197.504,326.487 178.168,346.487 "/>
<polygon style="fill:#1982BC;" points="250.168,326.567 250.168,305.895 306.168,282.143 306.168,346.487 "/>
<polygon style="fill:#11558C;" points="250.168,326.567 250.168,305.895 286.832,326.487 306.168,346.487 "/>
<path style="fill:#1982BC;" d="M234.168,323.207v-18.392c0-4.144,3.856-7.504,8-7.504l0,0c4.144,0,8,3.36,8,7.504v18.392"/>
</svg>