<!DOCTYPE svg PUBLIC "-//W3C//DTD SVG 1.1//EN" "http://www.w3.org/Graphics/SVG/1.1/DTD/svg11.dtd">
<!-- Uploaded to: SVG Repo, www.svgrepo.com, Transformed by: SVG Repo Mixer Tools -->
<svg width="800px" height="800px" viewBox="0 0 16 16" fill="none" xmlns="http://www.w3.org/2000/svg">
<g id="SVGRepo_bgCarrier" stroke-width="0"/>
<g id="SVGRepo_tracerCarrier" stroke-linecap="round" stroke-linejoin="round"/>
<g id="SVGRepo_iconCarrier"> <path fill-rule="evenodd" clip-rule="evenodd" d="M7.85144 10.998C4.88255 10.9193 2.5 8.48789 2.5 5.5C2.5 2.46243 4.96243 0 8 0C11.0376 0 13.5 2.46243 13.5 5.5C13.5 6.55815 13.2012 7.54651 12.6833 8.38529L8.56828 15.9656L5.93172 14.5344L7.85144 10.998ZM10.0965 6.86244C9.65053 7.54725 8.87814 8 8 8C6.61929 8 5.5 6.88071 5.5 5.5C5.5 4.11929 6.61929 3 8 3C9.38071 3 10.5 4.11929 10.5 5.5C10.5 5.90629 10.3985 6.30614 10.2046 6.66322L10.0965 6.86244Z" fill="#DE9804"/> </g>
</svg>