<!DOCTYPE svg PUBLIC "-//W3C//DTD SVG 1.1//EN" "http://www.w3.org/Graphics/SVG/1.1/DTD/svg11.dtd">
<!-- Uploaded to: SVG Repo, www.svgrepo.com, Transformed by: SVG Repo Mixer Tools -->
<svg width="800px" height="800px" viewBox="0 0 512 512" xmlns="http://www.w3.org/2000/svg" fill="#000000">
<g id="SVGRepo_bgCarrier" stroke-width="0"/>
<g id="SVGRepo_tracerCarrier" stroke-linecap="round" stroke-linejoin="round"/>
<g id="SVGRepo_iconCarrier"> <path fill="var(--ci-primary-color, #ffffff)" d="M440,40H72A16,16,0,0,0,56,56V456a16,16,0,0,0,16,16H440a16,16,0,0,0,16-16V56A16,16,0,0,0,440,40ZM424,232H376v48h48v48H376v40H328V328H280v40H232V328H184v40H136V328H88V280h48V232H88V72H424Z" class="ci-primary"/> <rect width="48" height="48" x="136" y="280" fill="var(--ci-primary-color, #ffffff)" class="ci-primary"/> <rect width="48" height="48" x="184" y="232" fill="var(--ci-primary-color, #ffffff)" class="ci-primary"/> <rect width="48" height="48" x="232" y="280" fill="var(--ci-primary-color, #ffffff)" class="ci-primary"/> <rect width="48" height="48" x="280" y="232" fill="var(--ci-primary-color, #ffffff)" class="ci-primary"/> <rect width="48" height="48" x="328" y="280" fill="var(--ci-primary-color, #ffffff)" class="ci-primary"/> <rect width="48" height="48" x="136" y="184" fill="var(--ci-primary-color, #ffffff)" class="ci-primary"/> <rect width="48" height="48" x="232" y="184" fill="var(--ci-primary-color, #ffffff)" class="ci-primary"/> <rect width="48" height="48" x="328" y="184" fill="var(--ci-primary-color, #ffffff)" class="ci-primary"/> </g>
</svg>