<?xml version="1.0" encoding="utf-8"?><!-- Uploaded to: SVG Repo, www.svgrepo.com, Generator: SVG Repo Mixer Tools -->
<svg width="800px" height="800px" viewBox="0 0 24 24" fill="none" xmlns="http://www.w3.org/2000/svg">
<path d="M10 13.0002C10.5523 13.0002 11 12.5525 11 12.0002C11 11.448 10.5523 11.0002 10 11.0002C9.44771 11.0002 9 11.448 9 12.0002C9 12.5525 9.44771 13.0002 10 13.0002Z" fill="#0F0F0F"/>
<path d="M15 12.0002C15 12.5525 14.5523 13.0002 14 13.0002C13.4477 13.0002 13 12.5525 13 12.0002C13 11.448 13.4477 11.0002 14 11.0002C14.5523 11.0002 15 11.448 15 12.0002Z" fill="#0F0F0F"/>
<path d="M8.29289 15.2931C8.68006 14.906 9.30573 14.9026 9.69699 15.2832C9.8449 15.415 10.021 15.5177 10.1972 15.6058C10.5749 15.7947 11.1728 16.0002 12 16.0002C12.8272 16.0002 13.4251 15.7947 13.8028 15.6058C13.979 15.5177 14.1551 15.415 14.303 15.2832C14.6943 14.9026 15.3199 14.906 15.7071 15.2931C16.0976 15.6837 16.0976 16.3168 15.7071 16.7074C15.6303 16.784 15.5522 16.8517 15.4125 16.9565C15.245 17.0821 15.0067 17.2399 14.6972 17.3947C14.0749 17.7058 13.1728 18.0002 12 18.0002C10.8272 18.0002 9.92507 17.7058 9.30278 17.3947C8.99327 17.2399 8.75496 17.0821 8.58749 16.9565C8.44826 16.8521 8.37026 16.7843 8.29359 16.7081C7.90307 16.3175 7.90236 15.6837 8.29289 15.2931Z" fill="#0F0F0F"/>
<path fill-rule="evenodd" clip-rule="evenodd" d="M13.1296 2.80381C13.295 3.09712 13.4047 3.51797 13.1972 4.07117C12.8047 4.02434 12.4051 4.00024 12 4.00024C7.59784 4.00024 3.86005 6.84476 2.52438 10.796C1.07592 11.1461 0 12.4508 0 14.0068C0 15.5645 1.0783 16.8703 2.52918 17.2186C3.86899 21.1625 7.6031 24.0002 12 24.0002C16.3969 24.0002 20.131 21.1625 21.4708 17.2186C22.9217 16.8703 24 15.5645 24 14.0068C24 12.4508 22.9241 11.1461 21.4756 10.796C20.4747 7.83506 18.1249 5.4956 15.1574 4.50892C15.4491 3.53208 15.3113 2.60099 14.8718 1.82153C14.2627 0.741235 13.079 0.000244141 12 0.000244141C11.0671 0.000244141 10.3617 0.35319 9.89902 0.700448C9.66924 0.872899 9.49579 1.04612 9.37674 1.18029C9.31687 1.24776 9.2697 1.30655 9.23506 1.35211C8.88381 1.81421 8.94196 2.49769 9.44638 2.83302C9.9818 3.18895 10.4984 2.92957 10.8727 2.5077C10.92 2.45437 10.9962 2.37759 11.0996 2.30004C11.3031 2.1473 11.5976 2.00024 12 2.00024C12.2562 2.00024 12.8225 2.25915 13.1296 2.80381ZM19.9318 15.5313L21.004 15.2739C21.5763 15.1365 22 14.6186 22 14.0068C22 13.3956 21.5773 12.8782 21.0058 12.7401L19.934 12.4811L19.5809 11.4365C18.5116 8.27312 15.5186 6.00024 12 6.00024C8.48136 6.00024 5.48839 8.27312 4.41906 11.4365L4.06595 12.4811L2.99417 12.7401C2.42271 12.8782 2 13.3956 2 14.0068C2 14.6186 2.42366 15.1365 2.99604 15.2739L4.06821 15.5313L4.42289 16.5753C5.49555 19.7328 8.48558 22.0002 12 22.0002C15.5144 22.0002 18.5044 19.7328 19.5771 16.5753L19.9318 15.5313Z" fill="#0F0F0F"/>
</svg>