<?xml version="1.0" encoding="iso-8859-1"?>
<!-- Uploaded to: SVG Repo, www.svgrepo.com, Generator: SVG Repo Mixer Tools -->
<svg version="1.1" id="Layer_1" xmlns="http://www.w3.org/2000/svg" xmlns:xlink="http://www.w3.org/1999/xlink" 
	 viewBox="0 0 463.64 463.64" xml:space="preserve">
<polygon style="fill:#F15249;" points="432.768,328.472 279.824,281.232 279.824,271.64 183.824,271.64 183.824,281.248 
	30.872,328.472 39.824,463.64 39.824,463 39.824,463.64 423.824,463.64 423.824,462.512 423.824,463.64 "/>
<polygon style="fill:#C93131;" points="432.768,328.472 279.824,281.232 279.824,271.64 183.824,271.64 183.824,281.248 
	30.872,328.472 102.824,463.64 102.824,463.64 40.52,463.64 423.824,463.64 423.824,463.64 423.824,463.64 "/>
<polygon style="fill:#C68D1A;" points="347.328,247.64 116.32,247.64 132.816,127.64 330.816,127.64 "/>
<path style="fill:#AD7410;" d="M336.488,127.544c0,35.344-51.264,64-104.672,64c-53.376,0-104.656-28.656-104.656-64
	s51.28-64,104.656-64C285.224,63.544,336.488,92.2,336.488,127.544z"/>
<rect x="183.824" y="167.64" style="fill:#F9BDA0;" width="96" height="120"/>
<polygon style="fill:#EAA78C;" points="279.824,274.216 279.824,175.64 184.8,175.64 233.032,328.776 "/>
<polygon style="fill:#C68D1A;" points="271.824,90.152 144.848,122.896 208.6,55.64 271.824,55.64 "/>
<path style="fill:#EAA78C;" d="M279.824,281.232v-9.592h-96v9.608l-40.032,12.472c5.544,28.032,42.832,49.736,87.792,49.736
	s82.6-21.704,88.144-49.752L279.824,281.232z"/>
<circle style="fill:#BADADD;" cx="196.84" cy="127.296" r="20.488"/>
<path style="fill:#13475E;" d="M196.856,151.784c-13.504,0-24.496-10.984-24.496-24.488c0-13.504,10.992-24.496,24.496-24.496
	s24.48,10.992,24.48,24.496C221.328,140.8,210.352,151.784,196.856,151.784z M196.856,110.8c-9.104,0-16.496,7.4-16.496,16.496
	c0,9.088,7.4,16.488,16.496,16.488c9.088,0,16.48-7.4,16.48-16.488C213.328,118.192,205.944,110.8,196.856,110.8z"/>
<path style="fill:#13475E;" d="M175.824,127.64h-24c-2.208,0-4-1.792-4-4s1.792-4,4-4h24c2.208,0,4,1.792,4,4
	S178.032,127.64,175.824,127.64z"/>
<path style="fill:#7DA7AA;" d="M246.32,127.296c0-11.328,9.168-20.496,20.488-20.496s20.496,9.168,20.496,20.496
	c0,11.296-9.176,20.488-20.496,20.488S246.32,138.592,246.32,127.296z"/>
<path style="fill:#13475E;" d="M266.8,151.784c-13.504,0-24.488-10.984-24.488-24.488c0-13.504,10.984-24.496,24.488-24.496
	s24.496,10.992,24.496,24.496C291.296,140.8,280.312,151.784,266.8,151.784z M266.8,110.8c-9.088,0-16.488,7.4-16.488,16.496
	c0,9.088,7.4,16.488,16.488,16.488c9.096,0,16.496-7.4,16.496-16.488C283.296,118.192,275.896,110.8,266.8,110.8z"/>
<g>
	<path style="fill:#13475E;" d="M311.824,135.64h-24c-2.208,0-4-1.792-4-4s1.792-4,4-4h24c2.208,0,4,1.792,4,4
		S314.032,135.64,311.824,135.64z"/>
	<path style="fill:#13475E;" d="M245.224,138.064c-2.208,0-4-1.792-4-4c0-5.176-4.208-9.392-9.392-9.392
		c-5.192,0-9.424,4.208-9.424,9.392c0,2.208-1.792,4-4,4s-4-1.792-4-4c0-9.584,7.816-17.392,17.424-17.392
		c9.584,0,17.392,7.808,17.392,17.392C249.224,136.272,247.432,138.064,245.224,138.064z"/>
</g>
<polygon style="fill:#FFB81A;" points="371.752,247.064 231.824,314.528 91.88,247.064 114.368,84.2 231.824,20.096 349.272,84.2 
	"/>
<polygon style="fill:#FFAB17;" points="371.752,247.064 231.824,314.528 91.88,247.064 114.368,84.2 231.824,108.592 349.272,84.2 
	"/>
<polyline style="fill:#FF8A15;" points="231.824,20.096 349.272,84.2 371.752,247.064 231.824,314.528 "/>
<path style="fill:#5E6664;" d="M192.336,114.28c0,6.2-5.648,11.216-12.592,11.216c-6.928,0-12.584-5.016-12.584-11.216
	s5.656-11.232,12.584-11.232C186.688,103.048,192.336,108.08,192.336,114.28z"/>
<path style="fill:#2F423F;" d="M188.624,106.344c4.944,4.376,4.904,11.504,0,15.872c-4.88,4.392-12.872,4.392-17.784,0"/>
<ellipse style="fill:#5E6664;" cx="283.904" cy="114.28" rx="12.592" ry="11.216"/>
<path style="fill:#2F423F;" d="M292.784,106.344c4.952,4.376,4.896,11.504,0,15.872c-4.888,4.392-12.888,4.392-17.792,0"/>
<polygon style="fill:#FF8A15;" points="199.048,149.312 234.816,294.984 274.656,183.112 242.32,143.672 "/>
<polyline style="fill:#FFEE1A;" points="231.72,183.264 264.616,149.312 250.488,137.184 231.864,108.496 231.824,109.608 
	231.776,108.496 213.152,137.184 199.048,149.312 229.008,180.344 "/>
<polyline style="fill:#EACE00;" points="231.72,183.264 264.616,149.312 250.488,137.184 231.864,108.496 231.824,109.608 
	231.776,108.496 "/>
<polygon style="fill:#F15249;" points="231.824,104.592 269.328,30.496 237.68,0.72 231.824,0.184 231.824,0 231.824,0.096 
	231.824,0 231.824,0.184 225.936,0.72 194.552,30.496 231.824,104.592 231.824,105.328 231.824,104.968 231.824,105.328 "/>
<polyline style="fill:#C93131;" points="231.824,103.64 231.824,105.328 231.824,104.968 231.824,105.328 231.824,104.592 
	269.328,30.496 237.68,0.72 231.824,0.184 231.824,0.184 231.824,0.096 231.824,0 231.824,7.64 "/>
<g>
	<path style="fill:#FFAB17;" d="M254.864,418.216l-7.672-7.688l-7.688,7.688l-7.672-7.688l-7.688,7.688l-7.688-7.688l-7.672,7.688
		l-6.512-6.512c-0.576,3.592-0.888,7.28-0.888,10.984c0,24.624,13.624,34.512,30.456,34.512c16.816,0,30.44-9.888,30.44-34.512
		c0-3.704-0.312-7.392-0.888-10.984L254.864,418.216z"/>
	<path style="fill:#FFAB17;" d="M216.456,394.984l7.688-7.672l7.688,7.672l7.672-7.672l7.688,7.672l6.096-6.096
		c-5.504-9.096-13.096-15.128-21.456-15.128c-8.392,0-15.968,6.032-21.472,15.112L216.456,394.984z"/>
</g>
<g>
	<path style="fill:#FF8A15;" d="M231.832,457.2c16.816,0,30.44-9.888,30.44-34.512c0-3.704-0.312-7.392-0.888-10.984l-6.512,6.512
		l-7.672-7.688l-7.688,7.688l-7.672-7.688l-7.688,7.688l-7.688-7.688"/>
	<path style="fill:#FF8A15;" d="M224.144,387.312l7.688,7.672l7.672-7.672l7.688,7.672l6.096-6.096
		c-5.504-9.096-13.096-15.128-21.456-15.128"/>
</g>
</svg>