<!DOCTYPE svg PUBLIC "-//W3C//DTD SVG 1.1//EN" "http://www.w3.org/Graphics/SVG/1.1/DTD/svg11.dtd">
<!-- Uploaded to: SVG Repo, www.svgrepo.com, Transformed by: SVG Repo Mixer Tools -->
<svg fill="#ffffff" height="800px" width="800px" version="1.1" id="Layer_1" xmlns="http://www.w3.org/2000/svg" xmlns:xlink="http://www.w3.org/1999/xlink" viewBox="0 0 512 512" xml:space="preserve" stroke="#ffffff">
<g id="SVGRepo_bgCarrier" stroke-width="0"/>
<g id="SVGRepo_tracerCarrier" stroke-linecap="round" stroke-linejoin="round"/>
<g id="SVGRepo_iconCarrier"> <g> <g> <path d="M461.228,68.409h-60.392V8.017c0-4.428-3.588-8.017-8.017-8.017H256c-4.427,0-8.017,3.588-8.017,8.017v68.409 c0,4.428,3.589,8.017,8.017,8.017h60.393v60.393c0,4.428,3.588,8.017,8.017,8.017h136.818c4.428,0,8.017-3.588,8.017-8.017V76.426 C469.244,71.997,465.656,68.409,461.228,68.409z M316.393,68.409h-52.376V16.033h52.376V68.409z M384.802,136.818h-52.376V84.443 h52.376V136.818z M384.802,68.409h-52.376V16.033h52.376V68.409z M453.211,136.818h-52.376V84.443h52.376V136.818z"/> </g> </g> <g> <g> <path d="M495.432,359.148H435.04v-60.393c0-4.428-3.588-8.017-8.017-8.017h-68.409c-4.428,0-8.017,3.588-8.017,8.017v60.393 h-9.086c-4.428,0-8.017,3.588-8.017,8.017c0,4.428,3.588,8.017,8.017,8.017h9.086v52.376h-52.376v-52.376h9.086 c4.428,0,8.017-3.588,8.017-8.017c0-4.428-3.588-8.017-8.017-8.017h-85.511c-4.427,0-8.017,3.588-8.017,8.017v60.393h-52.376 v-86.58h60.392c4.427,0,8.017-3.588,8.017-8.017v-60.392h60.392c4.428,0,8.017-3.588,8.017-8.017v-68.409 c0-4.428-3.588-8.017-8.017-8.017h-60.392v-60.392c0-4.428-3.589-8.017-8.017-8.017h-68.409c-4.427,0-8.017,3.588-8.017,8.017 v17.102c0,4.428,3.589,8.017,8.017,8.017s8.017-3.588,8.017-8.017v-9.086h52.376v52.376h-52.376v-9.086 c0-4.428-3.589-8.017-8.017-8.017s-8.017,3.588-8.017,8.017v111.699H67.875c-4.427,0-8.017,3.588-8.017,8.017 c0,4.428,3.589,8.017,8.017,8.017h9.086v52.376H24.585v-52.376h9.086c4.427,0,8.017-3.588,8.017-8.017 c0-4.428-3.589-8.017-8.017-8.017H16.568c-4.427,0-8.017,3.588-8.017,8.017v205.228c0,4.428,3.589,8.017,8.017,8.017h478.864 c4.428,0,8.017-3.588,8.017-8.017V367.165C503.449,362.737,499.861,359.148,495.432,359.148z M229.812,204.159h52.376v52.376 h-52.376V204.159z M161.403,204.159h52.376v52.376h-52.376V204.159z M161.403,272.568h52.376v52.376h-52.376V272.568z M76.96,495.967H24.585v-52.376H76.96V495.967z M76.96,427.557H24.585v-52.376H76.96V427.557z M145.37,495.967H92.994v-52.376 h52.376V495.967z M145.37,427.557H92.994v-52.376h52.376V427.557z M145.37,359.148H92.994v-52.376h52.376V359.148z M213.779,495.967h-52.376v-52.376h52.376V495.967z M282.188,495.967h-52.376v-52.376h52.376V495.967z M282.188,427.557h-52.376 v-52.376h52.376V427.557z M350.597,495.967h-52.376v-52.376h52.376V495.967z M419.006,495.967H366.63v-52.376h52.376V495.967z M419.006,427.557H366.63v-52.376h52.376V427.557z M419.006,359.148H366.63v-52.376h52.376V359.148z M487.415,495.967H435.04 v-52.376h52.376V495.967z M487.415,427.557H435.04v-52.376h52.376V427.557z"/> </g> </g> </g>
</svg>