<!DOCTYPE svg PUBLIC "-//W3C//DTD SVG 1.1//EN" "http://www.w3.org/Graphics/SVG/1.1/DTD/svg11.dtd">
<!-- Uploaded to: SVG Repo, www.svgrepo.com, Transformed by: SVG Repo Mixer Tools -->
<svg fill="#DE9804" height="800px" width="800px" version="1.1" id="Layer_1" xmlns="http://www.w3.org/2000/svg" xmlns:xlink="http://www.w3.org/1999/xlink" viewBox="0 0 512 512" xml:space="preserve">
<g id="SVGRepo_bgCarrier" stroke-width="0"/>
<g id="SVGRepo_tracerCarrier" stroke-linecap="round" stroke-linejoin="round"/>
<g id="SVGRepo_iconCarrier"> <g> <g> <path d="M320.557,382.887v-95.722h-95.722v-95.722h-95.722V95.722H0V512h416.278V382.887H320.557z M95.722,478.609h-62.33v-62.33 h62.33V478.609z M95.722,382.887h-62.33v-62.33h62.33V382.887z M95.722,287.165h-62.33v-62.33h62.33V287.165z M95.722,191.443 h-62.33v-62.33h62.33V191.443z M191.443,478.609h-62.33v-62.33h62.33V478.609z M191.443,382.887h-62.33v-62.33h62.33V382.887z M191.443,287.165h-62.33v-62.33h62.33V287.165z M287.165,478.609h-62.33v-62.33h62.33V478.609z M287.165,382.887h-62.33v-62.33 h62.33V382.887z M382.887,478.609h-62.33v-62.33h62.33V478.609z"/> </g> </g> <g> <g> <path d="M416.278,95.722V0H287.165v224.835h95.722v95.722H512V95.722H416.278z M382.887,191.443h-62.33v-62.33h62.33V191.443z M382.887,95.722h-62.33v-62.33h62.33V95.722z M478.609,287.165h-62.33v-62.33h62.33V287.165z M478.609,191.443h-62.33v-62.33 h62.33V191.443z"/> </g> </g> </g>
</svg>