<!DOCTYPE svg PUBLIC "-//W3C//DTD SVG 1.1//EN" "http://www.w3.org/Graphics/SVG/1.1/DTD/svg11.dtd">
<!-- Uploaded to: SVG Repo, www.svgrepo.com, Transformed by: SVG Repo Mixer Tools -->
<svg fill="#ffffff" width="800px" height="800px" viewBox="0 0 32 32" version="1.1" xmlns="http://www.w3.org/2000/svg" stroke="#ffffff">
<g id="SVGRepo_bgCarrier" stroke-width="0"/>
<g id="SVGRepo_tracerCarrier" stroke-linecap="round" stroke-linejoin="round"/>
<g id="SVGRepo_iconCarrier"> <title>tic-tac-toe</title> <path d="M10.576 2.837v26.271zM2.839 21.36h26.264zM21.184 2.837v26.271zM2.839 10.752h26.149zM14.158 14.158l3.632 3.632zM14.205 17.742l3.537-3.537zM24.645 3.418l3.632 3.632zM24.692 7.002l3.537-3.537zM3.55 24.895l3.632 3.632zM3.598 28.48l3.537-3.537zM10.31 2.837h0.522v26.271h-0.522v-26.271zM20.959 2.837h0.47v26.272h-0.47v-26.272zM2.839 21.011h26.264v0.348h-26.264v-0.348zM2.839 10.578h26.264v0.348h-26.264v-0.348zM28.384 6.889l-0.257 0.259-3.591-3.571 0.257-0.259 3.591 3.571zM24.785 7.141l-0.256-0.26 3.608-3.555 0.256 0.26-3.608 3.555zM17.892 17.59l-0.257 0.259-3.591-3.572 0.257-0.259 3.591 3.572zM14.292 17.843l-0.256-0.26 3.608-3.555 0.256 0.26-3.608 3.555zM7.291 28.366l-0.257 0.259-3.591-3.572 0.257-0.259 3.591 3.572zM3.69 28.619l-0.256-0.26 3.608-3.555 0.256 0.26-3.608 3.555zM15.974 2.837c-1.396 0-2.527 1.073-2.527 2.397s1.131 2.397 2.527 2.397 2.527-1.073 2.527-2.397-1.131-2.397-2.527-2.397zM15.974 7.267c-1.184 0-2.144-0.91-2.144-2.034s0.96-2.034 2.144-2.034 2.144 0.91 2.144 2.034-0.96 2.034-2.144 2.034zM5.366 2.837c-1.396 0-2.527 1.073-2.527 2.397s1.131 2.397 2.527 2.397 2.527-1.073 2.527-2.397-1.131-2.397-2.527-2.397zM5.366 7.267c-1.184 0-2.144-0.91-2.144-2.034s0.96-2.034 2.144-2.034 2.144 0.91 2.144 2.034-0.96 2.034-2.144 2.034zM26.461 13.538c-1.396 0-2.527 1.073-2.527 2.397s1.131 2.397 2.527 2.397c1.396 0 2.527-1.073 2.527-2.397s-1.131-2.397-2.527-2.397zM26.461 17.969c-1.184 0-2.144-0.91-2.144-2.034s0.96-2.034 2.144-2.034c1.184 0 2.144 0.91 2.144 2.034s-0.96 2.034-2.144 2.034zM15.922 24.314c-1.396 0-2.527 1.073-2.527 2.397s1.131 2.397 2.527 2.397 2.527-1.073 2.527-2.397-1.131-2.397-2.527-2.397zM15.922 28.745c-1.184 0-2.144-0.91-2.144-2.034s0.96-2.034 2.144-2.034 2.144 0.91 2.144 2.034-0.96 2.034-2.144 2.034z"/> </g>
</svg>