<!DOCTYPE svg PUBLIC "-//W3C//DTD SVG 1.1//EN" "http://www.w3.org/Graphics/SVG/1.1/DTD/svg11.dtd">
<!-- Uploaded to: SVG Repo, www.svgrepo.com, Transformed by: SVG Repo Mixer Tools -->
<svg fill="#de9804" height="800px" width="800px" version="1.1" id="Capa_1" xmlns="http://www.w3.org/2000/svg" xmlns:xlink="http://www.w3.org/1999/xlink" viewBox="0 0 445.048 445.048" xml:space="preserve" stroke="#de9804">
<g id="SVGRepo_bgCarrier" stroke-width="0"/>
<g id="SVGRepo_tracerCarrier" stroke-linecap="round" stroke-linejoin="round"/>
<g id="SVGRepo_iconCarrier"> <path id="XMLID_564_" d="M407.01,198.45c-1.71-2.003-4.211-3.157-6.845-3.157c-2.634,0-5.136,1.154-6.846,3.157l-28.365,33.234 c-1.391,1.629-2.154,3.701-2.154,5.843v198.521c0,4.971,4.029,9,9,9h56.732c4.971,0,9-4.029,9-9V237.527 c0-2.142-0.764-4.214-2.155-5.843L407.01,198.45z M419.532,427.048H380.8v-19.022h38.732V427.048z M419.532,390.026H380.8V261.238 h38.732V390.026z M419.532,243.238H380.8v-2.393l19.365-22.689l19.367,22.689V243.238z M222.524,121.726 c24.293,0,44.058-19.764,44.058-44.057c0-24.292-19.764-44.056-44.058-44.056c-24.293,0-44.057,19.763-44.057,44.056 C178.467,101.962,198.231,121.726,222.524,121.726z M222.524,51.614c14.368,0,26.058,11.688,26.058,26.056 c0,14.368-11.689,26.057-26.058,26.057c-14.368,0-26.057-11.689-26.057-26.057C196.467,63.302,208.156,51.614,222.524,51.614z M192.609,369.533l17.188-17.188l-17.188-17.188c-3.515-3.515-3.515-9.213,0-12.728c3.515-3.514,9.214-3.514,12.728,0l17.188,17.188 l17.188-17.188c3.515-3.515,9.213-3.515,12.728,0c3.515,3.515,3.515,9.213,0,12.728l-17.188,17.188l17.188,17.188 c3.515,3.515,3.515,9.213,0,12.728c-1.757,1.757-4.061,2.636-6.364,2.636c-2.304,0-4.606-0.878-6.364-2.636l-17.188-17.188 l-17.188,17.188c-3.515,3.515-9.213,3.515-12.728,0C189.094,378.746,189.094,373.047,192.609,369.533z M428.532,0H16.516 c-4.971,0-9,4.029-9,9v412.014c0,4.971,4.029,9,9,9c0.009,0,0.018,0,0.029,0h308.976c4.971,0,9-4.029,9-9s-4.029-9-9-9h-25.329 V292.676h25.329c4.971,0,9-4.029,9-9s-4.029-9-9-9h-25.329V155.338h119.339v23.673c0,4.971,4.029,9,9,9s9-4.029,9-9V9 C437.532,4.029,433.502,0,428.532,0z M144.854,412.014H25.516V292.676h119.338V412.014z M144.854,274.676H25.516V155.338h119.338 V274.676z M144.854,137.338H25.516V18h119.338V137.338z M282.192,412.014H162.854V292.676h119.338V412.014z M282.192,274.676 H162.854V155.338h119.338V274.676z M282.192,137.338H162.854V18h119.338V137.338z M419.532,137.338H300.192V18h119.339V137.338z M85.185,396.401c24.292,0,44.056-19.763,44.056-44.056c0-24.293-19.764-44.057-44.056-44.057 c-24.293,0-44.057,19.764-44.057,44.057C41.128,376.638,60.892,396.401,85.185,396.401z M85.185,326.289 c14.368,0,26.056,11.689,26.056,26.057c0,14.367-11.688,26.056-26.056,26.056s-26.057-11.688-26.057-26.056 C59.128,337.978,70.817,326.289,85.185,326.289z M55.269,232.181l17.188-17.188l-17.188-17.188c-3.515-3.515-3.515-9.213,0-12.728 c3.515-3.515,9.213-3.515,12.728,0l17.188,17.188l17.188-17.188c3.515-3.514,9.213-3.514,12.728,0s3.514,9.213,0,12.728 l-17.188,17.188l17.188,17.188c3.515,3.515,3.515,9.213,0,12.728c-1.757,1.757-4.061,2.636-6.364,2.636s-4.606-0.879-6.364-2.636 l-17.188-17.188l-17.188,17.188c-3.515,3.515-9.214,3.515-12.728,0C51.754,241.394,51.754,235.696,55.269,232.181z"/> </g>
</svg>