<svg width="512" height="512" viewBox="0 0 512 512" fill="none" xmlns="http://www.w3.org/2000/svg">
<path d="M256.001 286.001C272.569 286.001 286.001 272.57 286.001 256.001C286.001 239.432 272.569 226.001 256.001 226.001C239.432 226.001 226.001 239.432 226.001 256.001C226.001 272.57 239.432 286.001 256.001 286.001Z" fill="#205284"/>
<path fill-rule="evenodd" clip-rule="evenodd" d="M256.001 286C239.433 286 226.001 272.568 226.001 256.001C226.001 239.432 239.433 226.001 256.001 226.001C272.568 226.001 286 239.433 286 256.001C286 272.568 272.568 286 256.001 286ZM256.001 186.001C217.341 186.001 186.001 217.341 186.001 256.001C186.001 294.66 217.341 326 256.001 326C294.66 326 326 294.66 326 256.001C326 217.341 294.66 186.001 256.001 186.001Z" fill="#212C4F"/>
<path fill-rule="evenodd" clip-rule="evenodd" d="M186.001 256.001C186.001 217.341 217.341 186.002 256 186.002C294.66 186.002 325.999 217.341 325.999 256.001C325.999 294.66 294.66 326 256 326C217.341 326 186.001 294.66 186.001 256.001V256.001ZM256 126.002C184.204 126.002 126.002 184.205 126.002 256.001C126.002 327.797 184.204 385.999 256 385.999C327.796 385.999 385.999 327.797 385.999 256.001C385.999 184.205 327.796 126.002 256 126.002Z" fill="url(#paint0_linear)"/>
<path fill-rule="evenodd" clip-rule="evenodd" d="M126.003 256.001C126.003 184.205 184.205 126.003 256.001 126.003C327.797 126.003 385.999 184.205 385.999 256.001C385.999 327.797 327.797 386 256.001 386C184.205 386 126.003 327.797 126.003 256.001V256.001ZM137.055 137.055C85.0895 160.997 45.3471 244.82 58.5629 262.59C62.6988 268.152 72.0237 267.243 87.7855 256.001C67.9707 309.676 99.1403 397.05 121.051 400.27C127.909 401.278 133.86 394.042 137.056 374.948C160.997 426.913 244.821 466.655 262.591 453.44C268.153 449.304 267.244 439.979 256.002 424.217C309.676 444.032 397.051 412.862 400.271 390.952C401.279 384.095 394.043 378.144 374.949 374.948C426.914 351.006 466.656 267.182 453.44 249.412C449.305 243.85 439.98 244.759 424.218 256.001C444.033 202.327 412.863 114.952 390.953 111.732C384.095 110.724 378.145 117.96 374.949 137.055C351.006 85.0896 267.182 45.3472 249.412 58.563C243.85 62.6999 244.759 72.0238 256.001 87.7856C202.327 67.9709 114.953 99.1404 111.732 121.05C110.724 127.908 117.96 133.859 137.055 137.055V137.055Z" fill="#4899F7"/>
<path d="M256 116.001C235.286 116.001 215.326 120.431 196.678 129.168C191.676 131.511 189.522 137.465 191.865 142.466C194.208 147.467 200.164 149.622 205.163 147.279C221.137 139.796 238.241 136.001 256.001 136.001C322.168 136.001 376 189.832 376 256C376 322.167 322.168 375.998 256.001 375.998C189.834 375.998 136.003 322.167 136.003 256C136.003 238.236 139.798 221.13 147.283 205.156C149.627 200.155 147.472 194.201 142.471 191.858C137.467 189.511 131.515 191.669 129.173 196.67C120.434 215.319 116.002 235.28 116.002 256C116.002 333.194 178.805 395.998 256 395.998C333.195 395.998 395.998 333.194 395.998 256C395.998 178.805 333.195 116.001 256 116.001V116.001Z" fill="black"/>
<path d="M335.999 256C335.999 211.888 300.112 176.001 256 176.001C211.889 176.001 176.001 211.888 176.001 256C176.001 300.111 211.889 335.998 256 335.998C300.112 335.998 335.999 300.112 335.999 256ZM196.001 256C196.001 222.916 222.917 196 256 196C289.084 196 316 222.916 316 256C316 289.083 289.084 315.999 256 315.999C222.917 315.999 196.001 289.083 196.001 256Z" fill="black"/>
<path d="M296 255.999C296 233.944 278.056 216 256 216C233.945 216 216.001 233.944 216.001 255.999C216.001 278.055 233.945 295.999 256 295.999C278.056 295.999 296 278.055 296 255.999ZM236.001 255.999C236.001 244.972 244.973 236 256 236C267.028 236 276 244.972 276 255.999C276 267.027 267.028 275.999 256 275.999C244.973 275.999 236.001 267.028 236.001 255.999Z" fill="black"/>
<path d="M504.586 272.52C499.249 271.091 493.769 274.257 492.339 279.591C481.118 321.473 440.526 361.96 405.93 377.88C404.117 375.727 401.764 373.807 398.837 372.124C437.206 343.382 465.146 289.36 465.979 260.898C466.117 256.187 465.517 252.391 464.482 249.305C473.101 229.427 477.771 203.391 477.361 176.927C476.886 146.246 469.697 117.351 457.119 95.5647C454.357 90.7828 448.242 89.1438 443.459 91.9048C438.676 94.6667 437.037 100.782 439.799 105.565C461.479 143.114 461.404 200.446 448.2 236.165C445.395 235.925 442.374 236.231 439.115 237.11C445.922 189.656 427.478 131.702 407.941 110.989C404.705 107.558 401.591 105.279 398.676 103.828C390.714 83.6819 375.611 61.9782 356.614 43.5604C334.584 22.2037 309.07 6.85493 284.768 0.343018C279.437 -1.08696 273.951 2.07899 272.521 7.41392C271.091 12.7478 274.257 18.2308 279.592 19.6608C321.474 30.8836 361.961 71.476 377.881 106.07C375.728 107.883 373.808 110.237 372.125 113.162C343.383 74.794 289.361 46.8544 260.9 46.0224C256.175 45.8814 252.376 46.4794 249.291 47.5124C229.417 38.8955 203.398 34.2246 176.928 34.6386C146.248 35.1135 117.353 42.3024 95.5666 54.8813C90.7837 57.6432 89.1447 63.7582 91.9066 68.5411C93.7596 71.749 97.1196 73.543 100.577 73.543C102.273 73.543 103.992 73.11 105.566 72.201C143.118 50.5203 200.45 50.5973 236.168 63.8012C235.928 66.6051 236.234 69.6271 237.113 72.886C189.659 66.0801 131.702 84.5229 110.989 104.059C107.558 107.295 105.279 110.409 103.829 113.323C83.6838 121.286 61.98 136.389 43.5633 155.386C22.2066 177.416 6.8578 202.93 0.345887 227.232C-1.08409 232.566 2.08186 238.049 7.41679 239.479C8.28278 239.711 9.15377 239.823 10.0108 239.823C14.4267 239.823 18.4666 236.876 19.6636 232.408C30.8865 190.525 71.4799 150.039 106.073 134.119C107.886 136.272 110.239 138.191 113.165 139.875C74.7969 168.617 46.8573 222.639 46.0253 251.101C45.8873 255.814 46.4873 259.608 47.5222 262.695C38.9024 282.573 34.2324 308.609 34.6424 335.073C35.1174 365.753 42.3063 394.648 54.8851 416.434C56.7381 419.642 60.0981 421.436 63.555 421.436C65.251 421.436 66.971 421.003 68.545 420.094C73.3279 417.332 74.9669 411.217 72.2049 406.434C50.5242 368.883 50.6002 311.552 63.805 275.834C66.61 276.074 69.6309 275.768 72.8909 274.888C66.083 322.343 84.5267 380.298 104.062 401.012C107.299 404.444 110.413 406.722 113.328 408.172C121.291 428.318 136.394 450.022 155.391 468.438C177.42 489.795 202.936 505.144 227.237 511.655C228.104 511.887 228.974 511.999 229.831 511.999C234.246 511.999 238.287 509.052 239.484 504.584C240.914 499.249 237.748 493.767 232.413 492.337C190.53 481.114 150.043 440.522 134.124 405.928C136.277 404.116 138.196 401.763 139.88 398.836C168.622 437.204 222.644 465.144 251.105 465.977C251.561 465.99 252.007 465.997 252.446 465.997C256.55 465.997 259.928 465.422 262.717 464.486C281.787 472.753 306.516 477.386 331.86 477.386C332.93 477.386 334.006 477.377 335.078 477.361C365.758 476.886 394.652 469.697 416.439 457.118C421.222 454.356 422.861 448.241 420.099 443.458C417.338 438.677 411.222 437.036 406.439 439.798C368.89 461.479 311.558 461.404 275.838 448.198C276.078 445.394 275.772 442.373 274.894 439.114C322.342 445.913 380.304 427.475 401.016 407.94C404.447 404.705 406.725 401.591 408.176 398.676C428.321 390.714 450.025 375.61 468.442 356.612C489.8 334.582 505.149 309.067 511.66 284.766C513.087 279.432 509.921 273.95 504.586 272.52V272.52ZM374.613 401.947C344.322 417.995 292.968 427.202 259.463 414.836C255.348 413.316 250.718 414.657 248.055 418.146C245.391 421.633 245.312 426.451 247.86 430.024C254.426 439.232 255.664 443.926 255.875 445.676C253.686 446.227 247.69 446.457 236.674 443.072C203.906 433.002 161.083 403.202 146.137 370.763C144.489 367.185 140.919 364.948 137.059 364.948C136.62 364.948 136.175 364.976 135.73 365.036C131.379 365.618 127.917 368.969 127.192 373.298C125.325 384.453 122.88 388.648 121.793 390.034C119.856 388.875 115.453 384.8 110.057 374.614C94.0076 344.323 84.7987 292.969 97.1676 259.464C98.6885 255.348 97.3456 250.721 93.8576 248.056C90.3697 245.392 85.5517 245.314 81.9798 247.861C72.7709 254.429 68.077 255.666 66.327 255.877C65.777 253.689 65.545 247.694 68.931 236.676C79.0008 203.907 108.801 161.084 141.24 146.138C145.226 144.302 147.549 140.08 146.968 135.731C146.386 131.38 143.035 127.918 138.706 127.193C127.552 125.327 123.357 122.881 121.971 121.794C123.129 119.857 127.204 115.454 137.39 110.059C167.681 94.0097 219.033 84.8019 252.539 97.1687C256.652 98.6877 261.283 97.3467 263.948 93.8587C266.612 90.3718 266.692 85.5539 264.143 81.9809C257.575 72.772 256.338 68.0781 256.127 66.3281C258.315 65.7761 264.312 65.5471 275.328 68.9321C308.096 79.0019 350.92 108.802 365.866 141.241C367.703 145.227 371.918 147.554 376.273 146.969C380.624 146.387 384.086 143.036 384.811 138.707C386.678 127.552 389.123 123.358 390.21 121.972C392.147 123.13 396.549 127.205 401.946 137.392C417.995 167.683 427.205 219.036 414.836 252.541C413.315 256.658 414.658 261.284 418.146 263.949C421.635 266.614 426.453 266.691 430.024 264.144C439.232 257.578 443.926 256.34 445.676 256.129C446.226 258.316 446.458 264.312 443.072 275.33C433.002 308.098 403.201 350.921 370.763 365.867C366.777 367.703 364.454 371.925 365.035 376.274C365.617 380.625 368.968 384.087 373.297 384.812C384.452 386.679 388.647 389.124 390.033 390.211C388.875 392.146 384.799 396.549 374.613 401.947V401.947Z" fill="black"/>
<path d="M164.08 174.074C166.641 174.074 169.202 173.097 171.155 171.144C175.06 167.239 175.06 160.907 171.155 157.001C167.249 153.097 160.919 153.097 157.012 157.001L157.006 157.007C153.101 160.912 153.104 167.241 157.009 171.147C158.962 173.098 161.52 174.074 164.08 174.074V174.074Z" fill="black"/>
<defs>
<linearGradient id="paint0_linear" x1="126.002" y1="126.002" x2="438.572" y2="277.603" gradientUnits="userSpaceOnUse">
<stop stop-color="#14F1D9"/>
<stop offset="1" stop-color="#3672F8"/>
</linearGradient>
</defs>
</svg>
