<svg id="visual" viewBox="0 0 900 600" width="900" height="600" xmlns="http://www.w3.org/2000/svg" xmlns:xlink="http://www.w3.org/1999/xlink" version="1.1"><rect x="0" y="0" width="900" height="600" fill="#001220"></rect><defs><linearGradient id="grad1_0" x1="33.3%" y1="0%" x2="100%" y2="100%"><stop offset="20%" stop-color="#001220" stop-opacity="1"></stop><stop offset="80%" stop-color="#001220" stop-opacity="1"></stop></linearGradient></defs><defs><linearGradient id="grad2_0" x1="0%" y1="0%" x2="66.7%" y2="100%"><stop offset="20%" stop-color="#001220" stop-opacity="1"></stop><stop offset="80%" stop-color="#001220" stop-opacity="1"></stop></linearGradient></defs><g transform="translate(900, 0)"><path d="M0 486.7C-62.1 479.7 -124.3 472.6 -186.3 449.7C-248.2 426.8 -310 388 -333 333C-356 278.1 -340.2 207.1 -359.4 148.9C-378.5 90.7 -432.6 45.3 -486.7 0L0 0Z" fill="#FBAE3C"></path></g><g transform="translate(0, 600)"><path d="M0 -486.7C54.9 -462.3 109.7 -437.9 173.7 -419.4C237.7 -401 310.9 -388.6 344.2 -344.2C377.5 -299.8 370.9 -223.4 388 -160.7C405.1 -98 445.9 -49 486.7 0L0 0Z" fill="#FBAE3C"></path></g></svg>