<svg id="Layer_1" enable-background="new 0 0 512.002 512.002" height="512" viewBox="0 0 512.002 512.002" width="512" xmlns="http://www.w3.org/2000/svg"><g><g clip-rule="evenodd" fill-rule="evenodd"><g fill="#b278d3"><path d="m136 151.176c9.23 0 19.771-5.456 29.417-14.364 16.622-15.351 30.583-40.955 30.583-66.554 0-33.28-26.863-60.258-60-60.258s-60 26.978-60 60.258c0 25.599 13.961 51.203 30.583 66.555 9.645 8.908 20.187 14.363 29.417 14.363z"/><path d="m216 211.176c0-33.626-21.028-62.58-50.584-74.363-9.645 8.908-20.186 14.364-29.417 14.364-9.23 0-19.772-5.456-29.417-14.364-29.555 11.782-50.582 40.735-50.582 74.363v150.823c0 21.999 18.001 40 40 40v100.004h40 40v-100.004c21.998 0 40-18.002 40-40z"/></g><g fill="#ff5d7d"><path d="m376.002 151.176c9.23 0 19.771-5.456 29.417-14.364 16.623-15.352 30.583-40.956 30.583-66.555 0-33.28-26.863-60.258-60-60.258s-60 26.978-60 60.258c0 25.599 13.961 51.203 30.583 66.555 9.645 8.909 20.187 14.364 29.417 14.364z"/><path d="m456.002 211.176c0-33.626-21.028-62.58-50.584-74.363-9.645 8.908-20.186 14.364-29.417 14.364-9.23 0-19.772-5.456-29.417-14.364-29.555 11.783-50.583 40.736-50.583 74.363v150.823c0 21.999 18.001 40 40 40v100.004h40 40v-100.004c21.998 0 40-18.002 40-40v-150.823z"/></g><g fill="#ffea60"><path d="m256 206.994c9.23 0 19.771-5.456 29.417-14.364 16.623-15.351 30.583-40.955 30.583-66.555 0-33.28-26.863-60.258-60-60.258s-60 26.978-60 60.258c0 25.599 13.961 51.203 30.583 66.555 9.646 8.908 20.187 14.364 29.417 14.364z"/><path d="m336.001 266.994c0-33.626-21.028-62.58-50.584-74.363-9.645 8.908-20.186 14.364-29.417 14.364-9.23 0-19.772-5.456-29.417-14.364-29.555 11.782-50.583 40.735-50.583 74.363v150.822c0 21.999 18.001 40 40 40v44.186h40 40v-44.186c21.998 0 40-18.002 40-40v-150.822z"/></g></g><g><path d="m121.685 98.07c2.559 0 5.119-.976 7.071-2.929 3.905-3.905 3.905-10.237 0-14.143-6.235-6.235-14.525-9.668-23.343-9.668-5.523 0-10 4.477-10 10s4.477 10 10 10c3.476 0 6.743 1.354 9.2 3.811 1.953 1.953 4.512 2.929 7.072 2.929z"/><path d="m150.314 98.07c2.559 0 5.119-.976 7.071-2.929 2.457-2.458 5.725-3.811 9.201-3.811 5.523 0 10-4.477 10-10s-4.477-10-10-10c-8.818 0-17.108 3.434-23.343 9.668-3.905 3.905-3.905 10.237 0 14.143 1.953 1.953 4.512 2.929 7.071 2.929z"/><path d="m241.685 153.888c2.559 0 5.119-.976 7.071-2.929 3.905-3.905 3.905-10.237 0-14.143-6.235-6.235-14.525-9.669-23.343-9.669-5.523 0-10 4.477-10 10s4.477 10 10 10c3.475 0 6.743 1.354 9.2 3.812 1.953 1.953 4.513 2.929 7.072 2.929z"/><path d="m270.315 153.888c2.559 0 5.119-.976 7.071-2.929 2.458-2.458 5.725-3.812 9.201-3.812 5.523 0 10-4.477 10-10s-4.477-10-10-10c-8.818 0-17.108 3.434-23.343 9.669-3.905 3.905-3.905 10.237 0 14.143 1.952 1.953 4.512 2.929 7.071 2.929z"/><path d="m390.317 98.07c2.559 0 5.119-.976 7.071-2.929 2.457-2.458 5.725-3.811 9.2-3.811 5.523 0 10-4.477 10-10s-4.477-10-10-10c-8.818 0-17.107 3.434-23.343 9.668-3.905 3.905-3.905 10.237 0 14.143 1.954 1.953 4.513 2.929 7.072 2.929z"/><path d="m361.688 98.07c2.559 0 5.119-.976 7.071-2.929 3.905-3.905 3.905-10.237 0-14.143-6.235-6.235-14.525-9.668-23.343-9.668-5.523 0-10 4.477-10 10s4.477 10 10 10c3.476 0 6.744 1.354 9.201 3.811 1.952 1.953 4.511 2.929 7.071 2.929z"/><path d="m456.003 492.002h-30.001v-81.018c22.754-4.678 40-24.975 40-48.985v-150.823c0-18.216-5.472-35.793-15.825-50.833-7.482-10.869-17.121-19.87-28.291-26.519.477-.585.952-1.178 1.422-1.779 14.423-18.455 22.694-40.976 22.694-61.787 0-38.74-31.402-70.258-70-70.258s-70 31.518-70 70.258c0 2.333.119 4.69.324 7.058-12.738-13.24-30.584-21.498-50.326-21.498-19.741 0-37.587 8.258-50.325 21.496.205-2.367.324-4.724.324-7.056.001-38.74-31.401-70.258-69.999-70.258s-70 31.518-70 70.258c0 20.812 8.271 43.332 22.694 61.787.47.602.944 1.194 1.422 1.779-11.17 6.649-20.808 15.65-28.291 26.519-10.353 15.039-15.825 32.617-15.825 50.833v150.823c0 24.01 17.246 44.308 40 48.985v81.018h-30.001c-5.523 0-10 4.477-10 10s4.477 10 10 10h400.005c5.523 0 10-4.477 10-10s-4.478-10-10.001-10zm-80.001-472.002c27.57 0 50 22.545 50 50.258 0 35.875-31.637 70.918-50 70.918s-50-35.044-50-70.918c0-27.713 22.43-50.258 50-50.258zm-80.002 237.809c-5.523 0-10 4.477-10 10v224.192h-20v-74.182c0-5.523-4.477-10-10-10s-10 4.477-10 10v74.182h-20v-179.195c0-5.523-4.477-10-10-10s-10 4.477-10 10v133.282c-11.623-4.152-20-15.31-20-28.271v-150.823c0-24.792 12.942-47.227 33.741-59.817.273-.149.539-.308.795-.48 1.419-.834 2.873-1.624 4.362-2.365 10.304 8.121 21.185 12.663 31.102 12.663s20.798-4.542 31.102-12.662c1.487.74 2.94 1.527 4.357 2.36.254.171.517.329.788.477 20.808 12.586 33.753 35.02 33.753 59.824v150.822c0 12.928-8.385 24.104-20 28.266v-178.273c0-5.523-4.477-10-10-10zm-40-181.991c27.57 0 50 22.545 50 50.257 0 35.875-31.636 70.919-50 70.919s-50-35.044-50-70.919c0-27.712 22.431-50.257 50-50.257zm-170-5.56c0-27.713 22.43-50.258 50-50.258s50 22.545 50 50.258c0 35.875-31.637 70.918-50 70.918s-50-35.044-50-70.918zm80 421.743h-20v-130c0-5.523-4.477-10-10-10s-10 4.477-10 10v130h-20v-280.01c0-5.523-4.477-10-10-10s-10 4.477-10 10v178.279c-11.623-4.152-20-15.31-20-28.271v-150.823c0-26.783 15.098-50.823 38.898-62.662 10.304 8.121 21.185 12.663 31.103 12.663 9.913 0 20.789-4.538 31.089-12.652 18.146 9.085 31.636 25.741 36.697 45.265-6.672 4.773-12.689 10.441-17.881 16.898-.641-4.905-4.826-8.695-9.905-8.695-5.523 0-10 4.477-10 10v55.002 150.822 74.184zm20-34.287c5.822 4.399 12.618 7.569 20 9.087v25.2h-20zm140.002 34.288h-20.002v-25.203c7.38-1.523 14.177-4.704 20.001-9.113v34.316c.001-.001.001-.001.001 0zm90-290.01c-5.523 0-10 4.477-10 10v280.01h-20v-130c0-5.523-4.477-10-10-10s-10 4.477-10 10v130h-20v-74.186c0-.01-.001-.019-.001-.029v-150.764c0-.01.001-.019.001-.029v-55.002c0-5.523-4.477-10-10-10-5.08 0-9.265 3.791-9.905 8.696-5.192-6.458-11.209-12.125-17.881-16.898 5.061-19.525 18.551-36.181 36.697-45.266 10.3 8.114 21.176 12.652 31.089 12.652 9.917 0 20.799-4.542 31.103-12.663 23.799 11.839 38.897 35.88 38.897 62.663v150.823c0 12.961-8.377 24.12-20 28.271v-178.278c0-5.523-4.477-10-10-10z"/><path d="m216 257.806c-5.523 0-10 4.48-10 10.003s4.477 10 10 10 10-4.477 10-10v-.007c0-5.523-4.477-9.996-10-9.996z"/></g></g></svg>