<svg id="visual" viewBox="0 0 900 600" width="900" height="600" xmlns="http://www.w3.org/2000/svg" xmlns:xlink="http://www.w3.org/1999/xlink" version="1.1"><rect x="0" y="0" width="900" height="600" fill="#002233"></rect><path d="M0 492L21.5 488.7C43 485.3 86 478.7 128.8 482.3C171.7 486 214.3 500 257.2 501.5C300 503 343 492 385.8 469.8C428.7 447.7 471.3 414.3 514.2 415.2C557 416 600 451 642.8 456.2C685.7 461.3 728.3 436.7 771.2 434.3C814 432 857 452 878.5 462L900 472L900 601L878.5 601C857 601 814 601 771.2 601C728.3 601 685.7 601 642.8 601C600 601 557 601 514.2 601C471.3 601 428.7 601 385.8 601C343 601 300 601 257.2 601C214.3 601 171.7 601 128.8 601C86 601 43 601 21.5 601L0 601Z" fill="#0066FF" stroke-linecap="round" stroke-linejoin="miter"></path></svg>