<svg id="Layer_1" data-name="Layer 1" xmlns="http://www.w3.org/2000/svg" viewBox="0 0 400 300" width="406" height="306" class="illustration styles_illustrationTablet__1DWOa"><path d="M118.26,98.45V62.51a10,10,0,0,1,10-9.95H284A10,10,0,0,1,294,62.51v55.62" fill="none" stroke="#e6e6e6" stroke-linecap="round" stroke-linejoin="round" stroke-dasharray="3 10"></path><rect x="194.85" y="35.72" width="48.48" height="33.68" fill="#e6e6e6"></rect><path d="M207.35,52.24c1.46,0,1.66-.8,1.66-1.52a12.5,12.5,0,0,0-.16-1.72,10.88,10.88,0,0,1-.17-1.7c0-1.89,1.23-2.69,3-2.69h.44v1.13h-.37c-1.21,0-1.62.66-1.62,1.76a9.24,9.24,0,0,0,.14,1.46,9.73,9.73,0,0,1,.14,1.56,2,2,0,0,1-1.47,2.21v0A2,2,0,0,1,210.38,55a9.5,9.5,0,0,1-.14,1.55A9.6,9.6,0,0,0,210.1,58c0,1.15.47,1.78,1.62,1.78h.37V61h-.44c-1.7,0-3-.74-3-2.81a10.75,10.75,0,0,1,.17-1.68A11.52,11.52,0,0,0,209,54.8c0-.63-.2-1.52-1.66-1.52Z" fill="#9e9e9e"></path><path d="M231.38,53.33c-1.46,0-1.66.8-1.66,1.51a12.36,12.36,0,0,0,.16,1.72,12.38,12.38,0,0,1,.17,1.71c0,1.88-1.23,2.68-3,2.68h-.43V59.82H227c1.21,0,1.62-.65,1.62-1.76a9.12,9.12,0,0,0-.14-1.45,9.94,9.94,0,0,1-.15-1.56,2,2,0,0,1,1.48-2.22v0a2,2,0,0,1-1.48-2.23,9.49,9.49,0,0,1,.15-1.56,9.37,9.37,0,0,0,.14-1.48c0-1.14-.47-1.78-1.62-1.78h-.37V44.61h.43c1.7,0,3,.74,3,2.81a11.81,11.81,0,0,1-.17,1.68,11.8,11.8,0,0,0-.16,1.66c0,.64.2,1.52,1.66,1.52Z" fill="#9e9e9e"></path><rect x="68.95" y="81.78" width="100.79" height="100.79" fill="#24285b"></rect><rect x="98.4" y="126" width="32.38" height="3.62" fill="#5271FF"></rect><rect x="107.69" y="115.91" width="28.94" height="3.62" fill="#ffd200"></rect><rect x="135.28" y="154.16" width="15.1" height="3.62" fill="#ffd200"></rect><rect x="120.02" y="143.97" width="15.1" height="3.62" fill="#ffd200"></rect><rect x="107.69" y="134.76" width="38.58" height="3.62" fill="#5271FF"></rect><rect x="86.39" y="134.76" width="14.51" height="3.62" fill="#fff"></rect><rect x="100.84" y="144.28" width="14.51" height="3.62" fill="#fff"></rect><rect x="87.1" y="163.7" width="14.51" height="3.62" fill="#fff"></rect><rect x="77.11" y="126" width="14.51" height="3.62" fill="#fff"></rect><circle cx="75.55" cy="87.89" r="1.71" fill="#fff"></circle><circle cx="80.63" cy="87.89" r="1.71" fill="#5271FF"></circle><circle cx="85.41" cy="87.89" r="1.71" fill="#ffd200"></circle><rect x="77.11" y="98.45" width="14.51" height="3.62" fill="#fff"></rect><rect x="86.39" y="107.51" width="14.51" height="3.62" fill="#fff"></rect><rect x="107.69" y="107.51" width="28.94" height="3.62" fill="#ffd200"></rect><rect x="86.39" y="115.91" width="14.51" height="3.62" fill="#fff"></rect><rect x="97.42" y="98.45" width="29.89" height="3.62" fill="#5271FF"></rect><rect x="77.52" y="154.16" width="14.51" height="3.62" fill="#fff"></rect><rect x="97.82" y="154.16" width="29.89" height="3.62" fill="#5271FF"></rect><rect x="107.35" y="163.68" width="29.89" height="3.62" fill="#5271FF"></rect><rect x="133.56" y="98.45" width="21.22" height="3.62" fill="#5271FF"></rect><polygon points="196.85 118.13 202.1 147.32 187.6 148.4 190.5 124.99 196.85 118.13" fill="#f4a28c"></polygon><path d="M189.89,128.63a8.12,8.12,0,0,0,4-2.49s-.09,4.14-4.55,8.32Z" fill="#ce8172" opacity="0.31"></path><path d="M186.76,116.5s-1.4,6.76-.78,11.44a3.46,3.46,0,0,0,3.91,3c2.35-.34,5.43-1.49,6.62-5l2.75-5.75a6.2,6.2,0,0,0-1.94-6.9C193.78,110,187.4,112.34,186.76,116.5Z" fill="#f4a28c"></path><path d="M186.1,120.8l-2.22,2.42a1.1,1.1,0,0,0,.48,1.8l2.57.81Z" fill="#f4a28c"></path><path d="M199,127.28l2.39-9.08s5.24-.89,3.67-4.31-3.67-1.15-3.74-5.08-3.26-4.72-5.53-2.52-1.21-.88-4-1.3-3.57.83-3.64,3-4.13-.15-5.19,2.56-1.2,5.34,5.82,5.79S190.76,122.54,199,127.28Z" fill="#24285b"></path><path d="M193.36,123.22s.36-2.63,2.32-2.2,1.46,4.25-1.28,4.29Z" fill="#f4a28c"></path><ellipse cx="198.56" cy="241.9" rx="96.76" ry="21.78" fill="#e6e6e6" opacity="0.45"></ellipse><path d="M183.78,144.14s-40.92-11.82-40.73,17.9c.15,22.45,25.33,70.11,25.33,70.11h52s39.45-60.51,20.26-80S217.05,149.42,183.78,144.14Z" fill="#5271FF"></path><polygon points="168.3 239.43 199.94 247.96 228.01 233.72 232.27 226.12 203.98 226.12 158.97 226.12 168.3 239.43" fill="#24285b"></polygon><path d="M217.44,148.4S202.1,156.1,206.5,196c1.24,11.23-2.52,14-2.52,14l-43.85,4.39,8.25,17.75h52S243.2,195,245,175.87,217.44,148.4,217.44,148.4Z" opacity="0.08"></path><path d="M193,239.42s10.65,3.73,7,8.54-9.44-3.18-9.44-3.18Z" fill="#5271FF"></path><path d="M193.28,237.56s-43-22-46.71-10.28,26,18.49,45.14,19.19Z" fill="#24285b"></path><path d="M203.73,239.29s34.33-34,41.37-24-19.14,25.51-37.17,32Z" fill="#24285b"></path><path d="M205.08,241.85s-10.17,9.06-4.28,11.73,7.13-6.29,7.13-6.29Z" fill="#5271FF"></path><path d="M214.63,156.68c-.16-11.45,13.65-17.54,21.9-9.61,6.05,5.82,11.95,14.55,14.86,27.49,7.35,32.59,20.56,27.6,27,17.32S283.59,159,283.59,159l11.73.22s10.07,58.68-33.06,60.86C229.06,221.75,215,184.13,214.63,156.68Z" fill="#5271FF"></path><path d="M214.63,156.68c-.16-11.45,13.65-17.54,21.9-9.61,6.05,5.82,11.95,14.55,14.86,27.49,7.35,32.59,20.56,27.6,27,17.32S283.59,159,283.59,159l11.73.22s10.07,58.68-33.06,60.86C229.06,221.75,215,184.13,214.63,156.68Z" fill="#fff" opacity="0.54"></path><rect x="291.61" y="135.32" width="4.73" height="41.55" fill="#24285b"></rect><polygon points="172.73 220.85 169.06 187.43 225.18 187.43 219.58 222.56 220.38 227.06 172.14 227.44 172.73 220.85" fill="#ffd200"></polygon><path d="M111.14,182.56s6.74-40.93,50.17-40.41l-34.83,40.41Z" opacity="0.28"></path><circle cx="197.67" cy="205.43" r="4.81" fill="#fff"></circle><path d="M162.36,144.33a11.89,11.89,0,0,0-15.12,3.54c-8.54,11.41-27,38.54-26.19,58.22,1.1,25.55,56.82,22,56.82,22l-1.1-9.66S143,216,152.32,199.05C158.65,187.52,178.76,153.32,162.36,144.33Z" fill="#5271FF"></path><path d="M162.36,144.33a11.89,11.89,0,0,0-15.12,3.54c-8.54,11.41-27,38.54-26.19,58.22,1.1,25.55,56.82,22,56.82,22l-1.1-9.66S143,216,152.32,199.05C158.65,187.52,178.76,153.32,162.36,144.33Z" fill="#fff" opacity="0.54"></path><path d="M286.54,159.05s-1.32-10.12,7.64-8.94,8.88,8.37,1.14,9.1Z" fill="#f4a28c"></path><rect x="268.04" y="106.65" width="51.21" height="32.74" fill="#ffd200"></rect><path d="M287,130.54a1.2,1.2,0,0,1-.74-.25l-7.77-6.14a1.24,1.24,0,0,1-.46-.94,1.22,1.22,0,0,1,.45-.94l7.77-6.25a1.2,1.2,0,1,1,1.5,1.87l-6.59,5.31,6.59,5.2a1.21,1.21,0,0,1,.19,1.69A1.17,1.17,0,0,1,287,130.54Z" fill="#fff"></path><path d="M301,130.54a1.2,1.2,0,0,1-.75-2.14l6.59-5.2-6.6-5.31a1.21,1.21,0,0,1-.18-1.69,1.2,1.2,0,0,1,1.69-.18l7.77,6.25a1.18,1.18,0,0,1,.44.94,1.23,1.23,0,0,1-.45.94l-7.77,6.14A1.2,1.2,0,0,1,301,130.54Z" fill="#fff"></path><path d="M290.73,130.54a1.23,1.23,0,0,1-.49-.1,1.2,1.2,0,0,1-.6-1.59l5.66-12.4a1.2,1.2,0,0,1,2.19,1l-5.66,12.39A1.22,1.22,0,0,1,290.73,130.54Z" fill="#fff"></path><path d="M177,220.67s8.56-3,10.61.55-1,8.38-9.76,6.87Z" fill="#f4a28c"></path></svg>