<svg id="Layer_1" enable-background="new 0 0 512.002 512.002" height="512" viewBox="0 0 512.002 512.002" width="512" xmlns="http://www.w3.org/2000/svg"><g><g clip-rule="evenodd" fill-rule="evenodd"><path d="m256.001 144.5c29.168 0 58.058 1.129 86.625 3.341.041-1.113.062-2.227.062-3.341 0-48.878-38.811-88.5-86.688-88.5s-86.687 39.623-86.687 88.5c0 1.114.021 2.228.062 3.341 28.568-2.211 57.458-3.341 86.626-3.341z" fill="#66e0f7"/><path d="m342.627 147.842c-28.567-2.212-57.457-3.341-86.625-3.341s-58.058 1.129-86.625 3.341c-8.384.649-16.741 1.392-25.069 2.226-25.13 15.095-47.835 35.124-67.233 59.026h48.802l14.542 55.407h37.222c0-44.183 35.084-80 78.361-80 43.278 0 78.361 35.817 78.361 80h37.222l14.542-55.407h48.802c-19.398-23.902-42.104-43.93-67.233-59.025-8.328-.836-16.685-1.578-25.069-2.227z" fill="#ff9eb1"/><path d="m140.419 264.501-14.542-55.407h-48.802c-26.284 32.386-46.494 71.884-58.43 115.855h68.688l15.865-60.447h37.221z" fill="#ff7d97"/><path d="m140.419 264.501h-37.222l-15.865 60.447h-68.688c-3.696 13.613-6.598 27.655-8.642 42.047 55.027 7.902 110.953 13.199 167.638 15.747 25.966 1.167 52.091 1.758 78.361 1.758s52.395-.59 78.361-1.758c56.685-2.548 112.612-7.846 167.639-15.747-2.044-14.392-4.947-28.434-8.642-42.047h-68.688l-15.865-60.447h-37.222-37.222c0 44.183-35.084 80-78.361 80-43.278 0-78.361-35.817-78.361-80z" fill="#ff5d7d"/><path d="m256.001 184.501c-43.278 0-78.361 35.817-78.361 80s35.084 80 78.361 80c43.278 0 78.361-35.817 78.361-80 .001-44.183-35.083-80-78.361-80zm-39.18 80c0-22.091 17.542-40 39.18-40 21.639 0 39.181 17.909 39.181 40s-17.542 40-39.181 40c-21.638 0-39.18-17.909-39.18-40z" fill="#6d91ac"/><ellipse cx="256.001" cy="264.501" fill="#66e0f7" rx="39.18" ry="40"/><path d="m386.127 209.093-14.542 55.407h37.222l15.865 60.447h68.688c-11.937-43.971-32.147-83.469-58.43-115.855z" fill="#ff7d97"/><path d="m334.362 382.743c-25.966 1.168-52.091 1.758-78.361 1.758-26.271 0-52.396-.591-78.361-1.759v21.76c0 11 8.815 20 19.59 20h117.542c10.775 0 19.59-9 19.59-20z" fill="#6d91ac"/></g><g><path d="m511.902 365.589c-13.668-96.227-65.651-180-139.057-224.094-1.266-.76-2.684-1.231-4.152-1.378-5.378-.539-10.775-1.028-16.181-1.49-2.993-51.589-45.133-92.627-96.511-92.627s-93.518 41.038-96.511 92.627c-5.405.462-10.802.951-16.18 1.49-1.469.147-2.887.618-4.152 1.378-73.406 44.095-125.39 127.868-139.057 224.094-.776 5.462 3.018 10.521 8.479 11.305 52.443 7.531 105.67 12.654 159.061 15.355v12.254c0 14.31 9.936 26.303 23.179 29.282l14.165 26.878c1.791 3.399 5.263 5.34 8.855 5.34 1.571 0 3.167-.372 4.653-1.155 4.886-2.575 6.76-8.623 4.185-13.509l-8.873-16.836h32.197v21.497c0 5.523 4.478 10 10 10s10-4.477 10-10v-21.498h32.198l-8.873 16.836c-2.575 4.886-.701 10.934 4.185 13.509 1.487.784 3.082 1.155 4.653 1.155 3.593 0 7.064-1.941 8.855-5.34l14.165-26.878c13.242-2.979 23.178-14.973 23.178-29.282v-12.254c53.39-2.701 106.617-7.824 159.061-15.355 5.46-.783 9.254-5.842 8.478-11.304zm-31.95-50.641h-47.568l-13.905-52.986c-1.154-4.396-5.128-7.461-9.673-7.461h-24.258l9.293-35.408h36.204c21.624 27.627 38.648 60.216 49.907 95.855zm-223.951-248.948c39.845 0 72.678 31.271 76.336 71.095-25.381-1.711-50.932-2.595-76.336-2.595s-50.955.884-76.336 2.595c3.659-39.823 36.491-71.095 76.336-71.095zm-108.445 93.795c35.813-3.513 72.282-5.294 108.445-5.294s72.634 1.781 108.446 5.294c17.529 10.765 33.71 24.023 48.303 39.298h-26.623c-4.545 0-8.519 3.065-9.673 7.461l-12.584 47.946h-20.056c-4.9-44.937-42.409-80-87.813-80s-82.913 35.063-87.813 80h-20.055l-12.584-47.946c-1.154-4.396-5.128-7.461-9.673-7.461h-26.623c14.593-15.275 30.774-28.533 48.303-39.298zm-65.599 59.298h36.205l9.292 35.408h-24.258c-4.545 0-8.519 3.065-9.673 7.461l-13.906 52.986h-47.567c11.259-35.639 28.284-68.228 49.907-95.855zm242.405 185.41c0 5.514-4.302 10-9.59 10h-.08c-.021 0-.041 0-.062 0h-117.266c-.014 0-.029 0-.043 0h-.09c-5.288 0-9.591-4.486-9.591-10v-11.359c22.788.892 45.59 1.357 68.361 1.357s45.574-.464 68.361-1.357zm-68.361-30.002c-78.467 0-157.321-5.379-234.544-15.994 1.373-7.961 3.025-15.82 4.942-23.559h60.932c4.545 0 8.519-3.065 9.673-7.461l13.906-52.986h57.287c2.802 25.422 16.173 48.697 36.97 63.62 4.489 3.22 10.736 2.192 13.955-2.295 3.22-4.487 2.192-10.735-2.295-13.955-18.277-13.114-29.188-34.56-29.188-57.37 0-38.598 30.667-70 68.361-70s68.361 31.402 68.361 70c0 22.812-10.913 44.26-29.193 57.374-4.487 3.219-5.516 9.467-2.297 13.955 1.953 2.723 5.021 4.172 8.135 4.172 2.018 0 4.056-.609 5.82-1.875 20.801-14.923 34.176-38.199 36.977-63.625h57.288l13.905 52.986c1.154 4.396 5.128 7.461 9.673 7.461h60.932c1.917 7.739 3.569 15.598 4.942 23.559-77.221 10.613-156.075 15.993-234.542 15.993z"/><path d="m256.001 214.501c-27.118 0-49.18 22.43-49.18 50s22.062 50 49.18 50 49.181-22.43 49.181-50-22.063-50-49.181-50zm0 80c-16.09 0-29.18-13.458-29.18-30s13.09-30 29.18-30 29.181 13.458 29.181 30-13.091 30-29.181 30z"/><path d="m256.001 334.501h-.007c-5.522 0-9.996 4.477-9.996 10s4.48 10 10.003 10 10-4.477 10-10-4.477-10-10-10z"/></g></g></svg>