<svg width="70" height="69" viewBox="0 0 70 69" fill="none" xmlns="http://www.w3.org/2000/svg">
<g clip-path="url(#clip0)">
<path fill-rule="evenodd" clip-rule="evenodd" d="M19.2706 25.3214L19.2706 44.3686C22.7305 44.3686 25.9173 42.4871 27.5942 39.4775C27.2055 38.0755 27.0966 36.5043 27.0967 34.845C27.0967 33.1858 27.2056 31.6146 27.5944 30.2126C25.9173 27.2029 22.7307 25.3215 19.2706 25.3214V25.3214Z" fill="#FF6756"/>
<path fill-rule="evenodd" clip-rule="evenodd" d="M27.0967 34.8449C27.0967 36.5042 27.2056 38.0754 27.5943 39.4774C28.5916 43.0751 31.4314 45.5588 39.001 45.5588C44.7458 45.5589 52.027 44.1282 57.4531 41.8658C61.9627 39.9855 65.1909 37.5306 65.1909 34.8448C65.191 32.2846 62.2573 29.9341 58.0764 28.0913C55.2428 26.8421 51.8362 25.8262 48.3819 25.1362C47.0622 24.8725 45.7356 24.6564 44.4313 24.4931C42.545 24.2569 40.7053 24.1309 39.0009 24.1309C31.4312 24.1309 28.5916 26.6148 27.5943 30.2126C27.2056 31.6144 27.0967 33.1856 27.0967 34.8449ZM38.9282 38.5421C36.8863 38.5421 35.2309 36.8868 35.2309 34.8448C35.2309 32.8029 36.8862 31.1476 38.9282 31.1476C40.9701 31.1476 42.6255 32.8029 42.6254 34.8449C42.6254 36.8868 40.9701 38.5421 38.9282 38.5421ZM48.7943 34.8448C48.7943 33.3901 49.9737 32.2108 51.4284 32.2108C52.8832 32.2108 54.0625 33.3901 54.0624 34.8448C54.0625 36.2996 52.8831 37.479 51.4284 37.4789C49.9736 37.479 48.7943 36.2997 48.7943 34.8448Z" fill="#FF6756"/>
<path d="M36.3139 37.4594C37.7577 38.9033 40.0987 38.9033 41.5425 37.4594C42.9864 36.0156 42.9864 33.6746 41.5425 32.2308C40.0987 30.7869 37.7577 30.7869 36.3139 32.2308C34.87 33.6746 34.87 36.0156 36.3139 37.4594Z" fill="#FF6756"/>
<path fill-rule="evenodd" clip-rule="evenodd" d="M51.4284 32.211C49.9737 32.211 48.7943 33.3903 48.7943 34.8451C48.7943 36.2999 49.9736 37.4792 51.4284 37.4792C52.8832 37.4792 54.0626 36.2999 54.0625 34.8451C54.0626 33.3903 52.8833 32.211 51.4284 32.211Z" fill="#FF6756"/>
<path fill-rule="evenodd" clip-rule="evenodd" d="M30.0774 21.8634C30.0774 24.0955 30.0774 26.3408 30.0774 26.3408C31.8508 24.9548 34.6414 24.1309 39.0008 24.1309C41.1435 24.1309 43.4998 24.33 45.894 24.6969C45.782 21.3231 41.8168 18.0867 33.3212 18.2937C31.1924 18.3456 30.0774 19.6314 30.0774 21.8634V21.8634Z" fill="#FF6756"/>
<path fill-rule="evenodd" clip-rule="evenodd" d="M30.0774 47.8265C30.0774 45.5945 30.0774 43.3492 30.0774 43.3492C31.8508 44.7352 34.6414 45.559 39.0008 45.559C41.1435 45.559 43.4998 45.3599 45.8939 44.9929C45.782 48.3667 41.8167 51.6031 33.3212 51.3962C31.1925 51.3444 30.0774 50.0587 30.0774 47.8265V47.8265Z" fill="#FF6756"/>
<path fill-rule="evenodd" clip-rule="evenodd" d="M19.2707 39.1196L19.2707 30.041C18.0537 28.8661 16.4377 28.1823 14.7378 28.1823C11.1515 28.1823 7.49069 32.3713 4.98307 31.6995C4.71657 31.6282 4.44269 31.7866 4.37147 32.0531C4.34124 32.166 4.35233 32.2801 4.39525 32.3798C4.51399 32.6788 6.36063 37.1544 10.514 36.9056C10.2441 37.3538 9.80968 37.9018 9.15787 38.2782C8.91941 38.4152 8.83716 38.7197 8.97423 38.9581C11.2064 41.953 16.8816 42.6392 19.1715 39.2217L19.2707 39.1196Z" fill="#FFEA60"/>
<path d="M66.1307 34.8449C66.1307 31.9788 63.3017 29.2708 57.9494 27.0135C54.7133 25.6487 50.7333 24.5476 46.7496 23.8838C46.4204 22.0574 45.1602 20.4446 43.1417 19.2929C40.7464 17.9262 37.3428 17.2558 33.2985 17.3543C30.6932 17.4178 29.1378 19.1034 29.1379 21.8635L29.1379 25.899C28.4571 26.4997 27.8997 27.2042 27.4603 28.017C27.4261 28.0804 27.3929 28.1443 27.3603 28.2084C25.3922 25.8133 22.4302 24.3817 19.2709 24.3817C18.7519 24.3817 18.3312 24.8024 18.3312 25.3214L18.3312 28.1835C17.2331 27.5707 16.0025 27.2426 14.7379 27.2427C12.7052 27.2427 10.747 28.3676 9.0194 29.36C7.59061 30.1807 6.11319 31.0294 5.22584 30.7916C4.85443 30.6923 4.4666 30.7437 4.13379 30.9362C3.80104 31.1286 3.56311 31.4391 3.46385 31.8105C3.38206 32.1166 3.40425 32.445 3.5263 32.737C3.63361 33.0048 4.17153 34.2654 5.2382 35.4708C6.18641 36.5419 7.28318 37.2637 8.47729 37.6125C7.95757 38.0521 7.80881 38.8154 8.15969 39.4263C8.17823 39.4586 8.19876 39.4898 8.22109 39.5197C8.39736 39.7563 8.5929 39.9812 8.80558 40.1939C10.2373 41.6254 12.4372 42.4905 14.6514 42.4457C16.0356 42.4176 17.3016 42.0327 18.3312 41.3509L18.3312 44.3686C18.3312 44.6281 18.4364 44.863 18.6064 45.033C18.7765 45.2031 19.0114 45.3083 19.2709 45.3082C22.4322 45.3082 25.3931 43.8765 27.3611 41.4807C27.638 42.0273 27.9761 42.5484 28.3907 43.0323C28.5156 43.1781 28.6459 43.3188 28.7823 43.4552C28.8966 43.5695 29.0156 43.68 29.1381 43.7877L29.1381 47.8266C29.1381 49.269 29.5628 50.4179 30.3402 51.1952C31.0504 51.9053 32.0549 52.3054 33.2987 52.3357C37.3488 52.4344 40.7559 51.7621 43.1518 50.3916C45.1646 49.2402 46.4207 47.6303 46.7495 45.8076C50.0703 45.2549 53.423 44.3932 56.3675 43.3022C59.2215 42.2446 61.5063 41.0511 63.1584 39.7547C65.1306 38.2068 66.1307 36.555 66.1307 34.8449V34.8449ZM14.6132 40.5666C12.888 40.6016 11.1337 39.9052 10.0693 38.7985C10.5544 38.4315 10.9807 37.9524 11.319 37.3902C11.499 37.0913 11.4985 36.7173 11.3179 36.4189C11.1372 36.1207 10.8061 35.9466 10.4579 35.9676C7.80449 36.1264 6.23146 33.883 5.59573 32.7127C6.979 32.6992 8.43224 31.8644 9.95538 30.9895C11.5538 30.0713 13.2066 29.1219 14.7377 29.122C16.0463 29.122 17.3104 29.5949 18.331 30.4586L18.331 38.7839C17.2656 40.2887 15.5489 40.5477 14.6132 40.5666V40.5666ZM20.2104 43.3773L20.2104 26.3126C22.8329 26.6021 25.1984 28.0907 26.5901 30.3578C26.2208 31.8997 26.1571 33.4965 26.1571 34.8449C26.1571 36.2976 26.2309 37.853 26.5877 39.3356C25.1956 41.6012 22.8325 43.0883 20.2104 43.3773ZM33.3442 50.4569C32.3452 50.4324 31.0171 50.1332 31.0172 47.8265L31.0172 45.032C33.0045 46.0152 35.647 46.4986 39.001 46.4986C40.7995 46.4986 42.7389 46.3615 44.7223 46.1066C43.803 48.5269 40.1552 50.6229 33.3442 50.4569ZM55.7143 41.5398C50.5878 43.4393 44.1837 44.6193 39.0009 44.6192C34.4413 44.6192 31.4379 43.6997 29.8177 41.8096C28.4503 40.2136 28.1136 37.9464 28.0495 35.7915L34.3887 35.7914C34.576 36.6907 35.0243 37.4956 35.6509 38.1222C36.4905 38.9618 37.6497 39.4819 38.9282 39.4819C41.1632 39.4819 43.0337 37.8925 43.4693 35.7847L47.981 35.7847C48.147 36.3929 48.4692 36.9372 48.9027 37.3708C49.5498 38.0179 50.4432 38.4187 51.4286 38.4187C53.3991 38.4187 55.0023 36.8155 55.0023 34.8449C55.0023 32.8745 53.3991 31.2712 51.4286 31.2712C50.4739 31.2712 49.5766 31.6429 48.9015 32.3179C48.4541 32.7653 48.1411 33.3107 47.98 33.9053L43.4693 33.9053C43.0337 31.7975 41.1632 30.2081 38.9282 30.208C36.691 30.208 34.8186 31.8009 34.3857 33.9121L28.0506 33.9121C28.187 29.5675 29.3843 26.6558 34.1146 25.5505C34.6199 25.4324 34.934 24.927 34.8158 24.4217C34.6977 23.9163 34.1924 23.6024 33.687 23.7205C32.692 23.953 31.804 24.263 31.0172 24.6524L31.0171 21.8634C31.0171 19.5565 32.3451 19.2574 33.3442 19.2331C40.1536 19.0672 43.8031 21.1648 44.7225 23.5843C43.9429 23.484 43.1679 23.4012 42.4034 23.3385C41.8862 23.2959 41.4325 23.6808 41.39 24.1981C41.3475 24.7152 41.7323 25.169 42.2496 25.2115C47.374 25.6322 52.9701 26.9532 57.219 28.7451C61.6882 30.6299 64.2515 32.8531 64.2513 34.8449C64.2513 37.0563 61.0599 39.5591 55.7143 41.5398V41.5398ZM41.6857 34.845C41.6858 36.3655 40.4487 37.6026 38.9282 37.6025C37.4076 37.6026 36.1705 36.3655 36.1706 34.845C36.1707 33.3244 37.4078 32.0873 38.9282 32.0873C40.4488 32.0873 41.6858 33.3244 41.6857 34.845ZM49.7341 34.845C49.7341 34.3923 49.9103 33.9668 50.2303 33.6469C50.5503 33.3268 50.9758 33.1506 51.4285 33.1506C51.8956 33.1505 52.3192 33.3406 52.626 33.6475C52.9328 33.9543 53.1229 34.3779 53.1229 34.845C53.1229 35.2976 52.9467 35.7231 52.6266 36.0432C52.3066 36.3632 51.8811 36.5395 51.4285 36.5394C50.4941 36.5394 49.734 35.7793 49.7341 34.845V34.845Z" fill="black"/>
<path d="M38.7651 23.4787L38.7646 23.4783C38.3977 23.1113 37.803 23.1116 37.436 23.4785C37.0691 23.8455 37.0693 24.4406 37.4362 24.8076C37.8032 25.1746 38.3981 25.1746 38.7651 24.8076C39.1321 24.4406 39.1321 23.8457 38.7651 23.4787Z" fill="black"/>
</g>
<defs>
<clipPath id="clip0">
<rect width="48.1105" height="48.1105" fill="white" transform="translate(35) rotate(45)"/>
</clipPath>
</defs>
</svg>
