<svg id="Layer_1" enable-background="new 0 0 512 512" height="512" viewBox="0 0 512 512" width="512" xmlns="http://www.w3.org/2000/svg"><g><g clip-rule="evenodd" fill-rule="evenodd"><path d="m256 265.869c61.58 0 111.5-13.721 111.5-30.646 0-4.089-.22-8.127-.649-12.102-6.032-55.888-53.36-99.398-110.851-99.398s-104.819 43.511-110.851 99.398c-.429 3.975-.649 8.013-.649 12.102 0 16.925 49.92 30.646 111.5 30.646z" fill="#66e0f7"/><path d="m367.5 235.223c0 16.925-49.92 30.646-111.5 30.646s-111.5-13.721-111.5-30.646c0-4.089.22-8.127.649-12.102-82.88 11.499-135.149 34.842-135.149 60.36 0 37.342 110.138 67.614 246 67.614s246-30.272 246-67.614c0-25.518-52.269-48.862-135.149-60.36.429 3.975.649 8.013.649 12.102z" fill="#6d91ac"/></g><g><path d="m375.691 214.297c-9.946-57.058-59.83-100.575-119.691-100.575-15.526 0-30.658 2.895-44.976 8.603-5.13 2.045-7.631 7.862-5.585 12.993 2.046 5.13 7.864 7.632 12.993 5.585 11.951-4.765 24.591-7.181 37.568-7.181 55.892 0 101.377 45.412 101.5 101.276-.847 1.862-7.647 7.871-28.85 13.182-19.796 4.958-45.597 7.689-72.649 7.689s-52.854-2.731-72.649-7.689c-21.203-5.311-28.003-11.319-28.85-13.182.027-12.899 2.442-25.46 7.179-37.339 2.045-5.13-.456-10.947-5.585-12.993-5.13-2.046-10.947.455-12.993 5.585-3.108 7.796-5.375 15.835-6.801 24.047-43.798 6.627-136.302 25.776-136.302 69.183 0 23.309 27.457 43.176 79.401 57.453 8.905 2.447 18.356 4.687 28.276 6.712l-5.707 21.298c-1.43 5.335 1.736 10.818 7.071 12.248.867.232 1.738.343 2.595.343 4.415 0 8.456-2.947 9.653-7.414l6.119-22.835c35.688 5.929 76.229 9.292 118.592 9.751v27.241c0 5.523 4.477 10 10 10s10-4.477 10-10v-27.241c42.363-.458 82.904-3.822 118.592-9.751l6.119 22.835c1.197 4.468 5.237 7.414 9.653 7.414.856 0 1.728-.111 2.595-.343 5.334-1.429 8.5-6.913 7.071-12.248l-5.707-21.298c9.92-2.025 19.372-4.265 28.276-6.712 51.944-14.277 79.401-34.144 79.401-57.453 0-43.413-92.529-62.561-136.309-69.184zm51.607 107.352c-45.625 12.54-106.459 19.446-171.298 19.446s-125.673-6.906-171.298-19.446c-47.757-13.126-64.702-28.765-64.702-38.168 0-12.519 30.688-35.396 114.505-48.671 0 .138-.005.275-.005.412 0 32.086 76.373 40.646 121.5 40.646s121.5-8.561 121.5-40.646c0-.138-.005-.274-.005-.412 83.818 13.275 114.505 36.153 114.505 48.671 0 9.403-16.945 25.042-64.702 38.168z"/><path d="m256.007 298.482h-.007c-5.523 0-9.997 4.477-9.997 10s4.481 10 10.004 10 10-4.477 10-10-4.477-10-10-10z"/><path d="m183.676 293.527h-.007c-5.523 0-9.997 4.477-9.997 10s4.481 10 10.004 10 10-4.477 10-10-4.477-10-10-10z"/><path d="m113.433 275.027h-.007c-5.523 0-9.997 4.477-9.997 10s4.481 10 10.004 10 10-4.477 10-10-4.477-10-10-10z"/><path d="m328.324 293.527c-5.523 0-10 4.477-10 10s4.477 10 10 10h.007c5.523 0 9.997-4.477 9.997-10s-4.481-10-10.004-10z"/><path d="m398.567 275.027c-5.523 0-10 4.477-10 10s4.477 10 10 10h.007c5.523 0 9.997-4.477 9.997-10s-4.481-10-10.004-10z"/><path d="m177.157 166.38c5.523 0 10-4.477 10-10s-4.477-10-10-10h-.007c-5.523 0-9.996 4.477-9.996 10s4.48 10 10.003 10z"/></g></g></svg>